<svg xmlns="http://www.w3.org/2000/svg" xmlns:xlink="http://www.w3.org/1999/xlink" zoomAndPan="magnify" preserveAspectRatio="xMidYMid meet" version="1.0" viewBox="0.19 350.28 749.14 47.94"><defs><g/></defs><g fill="#ffffff" fill-opacity="1"><g transform="translate(1.046321, 397.545764)"><g><path d="M 13.515625 0.671875 C 10.535156 0.671875 7.789062 0.0820312 5.28125 -1.09375 C 2.78125 -2.269531 0.734375 -3.925781 -0.859375 -6.0625 L 4.0625 -11.984375 C 6.632812 -8.429688 9.71875 -6.65625 13.3125 -6.65625 C 18.144531 -6.65625 20.5625 -9.519531 20.5625 -15.25 L 20.5625 -39.34375 L 4 -39.34375 L 4 -46.59375 L 29.21875 -46.59375 L 29.21875 -15.703125 C 29.21875 -10.242188 27.882812 -6.148438 25.21875 -3.421875 C 22.5625 -0.691406 18.660156 0.671875 13.515625 0.671875 Z M 13.515625 0.671875 "/></g></g></g><g fill="#ffffff" fill-opacity="1"><g transform="translate(64.391049, 397.545764)"><g><path d="M 39.265625 -24.234375 C 41.835938 -23.390625 43.878906 -21.976562 45.390625 -20 C 46.898438 -18.03125 47.65625 -15.578125 47.65625 -12.640625 C 47.65625 -8.609375 46.101562 -5.492188 43 -3.296875 C 39.894531 -1.097656 35.367188 0 29.421875 0 L 6.25 0 L 6.25 -46.59375 L 28.09375 -46.59375 C 33.59375 -46.59375 37.828125 -45.515625 40.796875 -43.359375 C 43.773438 -41.210938 45.265625 -38.253906 45.265625 -34.484375 C 45.265625 -32.171875 44.726562 -30.125 43.65625 -28.34375 C 42.59375 -26.570312 41.128906 -25.203125 39.265625 -24.234375 Z M 14.90625 -39.796875 L 14.90625 -26.953125 L 27.15625 -26.953125 C 30.175781 -26.953125 32.492188 -27.492188 34.109375 -28.578125 C 35.734375 -29.671875 36.546875 -31.257812 36.546875 -33.34375 C 36.546875 -35.476562 35.734375 -37.085938 34.109375 -38.171875 C 32.492188 -39.253906 30.175781 -39.796875 27.15625 -39.796875 Z M 28.890625 -6.796875 C 35.585938 -6.796875 38.9375 -9.035156 38.9375 -13.515625 C 38.9375 -17.992188 35.585938 -20.234375 28.890625 -20.234375 L 14.90625 -20.234375 L 14.90625 -6.796875 Z M 28.890625 -6.796875 "/></g></g></g><g fill="#ffffff" fill-opacity="1"><g transform="translate(143.29913, 397.545764)"><g><path d="M 36.75 0 L 27.21875 -13.640625 C 26.820312 -13.597656 26.222656 -13.578125 25.421875 -13.578125 L 14.90625 -13.578125 L 14.90625 0 L 6.25 0 L 6.25 -46.59375 L 25.421875 -46.59375 C 29.460938 -46.59375 32.976562 -45.925781 35.96875 -44.59375 C 38.96875 -43.257812 41.265625 -41.347656 42.859375 -38.859375 C 44.460938 -36.378906 45.265625 -33.429688 45.265625 -30.015625 C 45.265625 -26.515625 44.410156 -23.5 42.703125 -20.96875 C 40.992188 -18.4375 38.539062 -16.550781 35.34375 -15.3125 L 46.0625 0 Z M 36.546875 -30.015625 C 36.546875 -32.992188 35.566406 -35.28125 33.609375 -36.875 C 31.660156 -38.46875 28.800781 -39.265625 25.03125 -39.265625 L 14.90625 -39.265625 L 14.90625 -20.703125 L 25.03125 -20.703125 C 28.800781 -20.703125 31.660156 -21.507812 33.609375 -23.125 C 35.566406 -24.75 36.546875 -27.046875 36.546875 -30.015625 Z M 36.546875 -30.015625 "/></g></g></g><g fill="#ffffff" fill-opacity="1"><g transform="translate(220.21192, 397.545764)"><g><path d="M 6.25 -46.59375 L 14.90625 -46.59375 L 14.90625 0 L 6.25 0 Z M 6.25 -46.59375 "/></g></g></g><g fill="#ffffff" fill-opacity="1"><g transform="translate(269.722542, 397.545764)"><g><path d="M 38.078125 -23.828125 L 46.265625 -23.828125 L 46.265625 -5.265625 C 43.867188 -3.347656 41.070312 -1.878906 37.875 -0.859375 C 34.675781 0.160156 31.390625 0.671875 28.015625 0.671875 C 23.273438 0.671875 18.992188 -0.359375 15.171875 -2.421875 C 11.359375 -4.492188 8.363281 -7.347656 6.1875 -10.984375 C 4.007812 -14.617188 2.921875 -18.722656 2.921875 -23.296875 C 2.921875 -27.867188 4.007812 -31.972656 6.1875 -35.609375 C 8.363281 -39.242188 11.367188 -42.09375 15.203125 -44.15625 C 19.046875 -46.226562 23.363281 -47.265625 28.15625 -47.265625 C 32.0625 -47.265625 35.609375 -46.617188 38.796875 -45.328125 C 41.992188 -44.046875 44.679688 -42.160156 46.859375 -39.671875 L 41.40625 -34.34375 C 37.851562 -37.894531 33.570312 -39.671875 28.5625 -39.671875 C 25.269531 -39.671875 22.347656 -38.984375 19.796875 -37.609375 C 17.242188 -36.234375 15.242188 -34.300781 13.796875 -31.8125 C 12.359375 -29.332031 11.640625 -26.492188 11.640625 -23.296875 C 11.640625 -20.191406 12.359375 -17.394531 13.796875 -14.90625 C 15.242188 -12.425781 17.242188 -10.472656 19.796875 -9.046875 C 22.347656 -7.628906 25.242188 -6.921875 28.484375 -6.921875 C 32.128906 -6.921875 35.328125 -7.71875 38.078125 -9.3125 Z M 38.078125 -23.828125 "/></g></g></g><g fill="#ffffff" fill-opacity="1"><g transform="translate(349.362252, 397.545764)"><g><path d="M 47.65625 -46.59375 L 47.65625 0 L 39 0 L 39 -19.96875 L 14.90625 -19.96875 L 14.90625 0 L 6.25 0 L 6.25 -46.59375 L 14.90625 -46.59375 L 14.90625 -27.359375 L 39 -27.359375 L 39 -46.59375 Z M 47.65625 -46.59375 "/></g></g></g><g fill="#ffffff" fill-opacity="1"><g transform="translate(431.529328, 397.545764)"><g><path d="M 15.703125 -39.265625 L 0.265625 -39.265625 L 0.265625 -46.59375 L 39.796875 -46.59375 L 39.796875 -39.265625 L 24.359375 -39.265625 L 24.359375 0 L 15.703125 0 Z M 15.703125 -39.265625 "/></g></g></g><g fill="#ffffff" fill-opacity="1"><g transform="translate(499.862336, 397.545764)"><g><path d="M 8.125 0.46875 C 6.613281 0.46875 5.320312 -0.0507812 4.25 -1.09375 C 3.1875 -2.132812 2.65625 -3.457031 2.65625 -5.0625 C 2.65625 -6.695312 3.175781 -8.023438 4.21875 -9.046875 C 5.269531 -10.066406 6.570312 -10.578125 8.125 -10.578125 C 9.675781 -10.578125 10.972656 -10.066406 12.015625 -9.046875 C 13.054688 -8.023438 13.578125 -6.695312 13.578125 -5.0625 C 13.578125 -3.457031 13.046875 -2.132812 11.984375 -1.09375 C 10.921875 -0.0507812 9.632812 0.46875 8.125 0.46875 Z M 8.125 0.46875 "/></g></g></g><g fill="#ffffff" fill-opacity="1"><g transform="translate(544.384691, 397.545764)"><g><path d="M 6.25 -46.59375 L 26.625 -46.59375 C 31.59375 -46.59375 36.003906 -45.625 39.859375 -43.6875 C 43.722656 -41.757812 46.71875 -39.03125 48.84375 -35.5 C 50.976562 -31.976562 52.046875 -27.910156 52.046875 -23.296875 C 52.046875 -18.679688 50.976562 -14.609375 48.84375 -11.078125 C 46.71875 -7.554688 43.722656 -4.828125 39.859375 -2.890625 C 36.003906 -0.960938 31.59375 0 26.625 0 L 6.25 0 Z M 26.21875 -7.328125 C 29.632812 -7.328125 32.640625 -7.976562 35.234375 -9.28125 C 37.835938 -10.59375 39.835938 -12.457031 41.234375 -14.875 C 42.628906 -17.289062 43.328125 -20.097656 43.328125 -23.296875 C 43.328125 -26.492188 42.628906 -29.300781 41.234375 -31.71875 C 39.835938 -34.132812 37.835938 -35.992188 35.234375 -37.296875 C 32.640625 -38.609375 29.632812 -39.265625 26.21875 -39.265625 L 14.90625 -39.265625 L 14.90625 -7.328125 Z M 26.21875 -7.328125 "/></g></g></g><g fill="#ffffff" fill-opacity="1"><g transform="translate(627.61594, 397.545764)"><g><path d="M 41.203125 -7.25 L 41.203125 0 L 6.25 0 L 6.25 -46.59375 L 40.265625 -46.59375 L 40.265625 -39.34375 L 14.90625 -39.34375 L 14.90625 -27.21875 L 37.40625 -27.21875 L 37.40625 -20.109375 L 14.90625 -20.109375 L 14.90625 -7.25 Z M 41.203125 -7.25 "/></g></g></g><g fill="#ffffff" fill-opacity="1"><g transform="translate(700.471638, 397.545764)"><g><path d="M 48.859375 -46.59375 L 28.5625 0 L 20.03125 0 L -0.328125 -46.59375 L 9.046875 -46.59375 L 24.5625 -10.65625 L 40.203125 -46.59375 Z M 48.859375 -46.59375 "/></g></g></g></svg>