<svg xmlns="http://www.w3.org/2000/svg" xmlns:xlink="http://www.w3.org/1999/xlink" zoomAndPan="magnify" preserveAspectRatio="xMidYMid meet" version="1.0" viewBox="0.92 351.69 747.61 47.83"><defs><g/></defs><g fill="#aaabab" fill-opacity="1"><g transform="translate(1.780133, 398.842265)"><g><path d="M 13.484375 0.671875 C 10.515625 0.671875 7.78125 0.0820312 5.28125 -1.09375 C 2.78125 -2.269531 0.734375 -3.921875 -0.859375 -6.046875 L 4.046875 -11.953125 C 6.617188 -8.410156 9.695312 -6.640625 13.28125 -6.640625 C 18.113281 -6.640625 20.53125 -9.492188 20.53125 -15.203125 L 20.53125 -39.25 L 3.984375 -39.25 L 3.984375 -46.5 L 29.15625 -46.5 L 29.15625 -15.671875 C 29.15625 -10.222656 27.828125 -6.132812 25.171875 -3.40625 C 22.515625 -0.6875 18.617188 0.671875 13.484375 0.671875 Z M 13.484375 0.671875 "/></g></g></g><g fill="#aaabab" fill-opacity="1"><g transform="translate(64.996184, 398.842265)"><g><path d="M 39.1875 -24.171875 C 41.757812 -23.335938 43.796875 -21.929688 45.296875 -19.953125 C 46.804688 -17.984375 47.5625 -15.539062 47.5625 -12.625 C 47.5625 -8.59375 46.007812 -5.476562 42.90625 -3.28125 C 39.8125 -1.09375 35.296875 0 29.359375 0 L 6.25 0 L 6.25 -46.5 L 28.03125 -46.5 C 33.519531 -46.5 37.75 -45.421875 40.71875 -43.265625 C 43.6875 -41.117188 45.171875 -38.164062 45.171875 -34.40625 C 45.171875 -32.101562 44.640625 -30.066406 43.578125 -28.296875 C 42.515625 -26.523438 41.050781 -25.148438 39.1875 -24.171875 Z M 14.875 -39.71875 L 14.875 -26.90625 L 27.09375 -26.90625 C 30.101562 -26.90625 32.414062 -27.445312 34.03125 -28.53125 C 35.65625 -29.613281 36.46875 -31.195312 36.46875 -33.28125 C 36.46875 -35.40625 35.65625 -37.007812 34.03125 -38.09375 C 32.414062 -39.175781 30.101562 -39.71875 27.09375 -39.71875 Z M 28.828125 -6.78125 C 35.515625 -6.78125 38.859375 -9.015625 38.859375 -13.484375 C 38.859375 -17.953125 35.515625 -20.1875 28.828125 -20.1875 L 14.875 -20.1875 L 14.875 -6.78125 Z M 28.828125 -6.78125 "/></g></g></g><g fill="#aaabab" fill-opacity="1"><g transform="translate(143.743972, 398.842265)"><g><path d="M 36.671875 0 L 27.171875 -13.609375 C 26.765625 -13.566406 26.164062 -13.546875 25.375 -13.546875 L 14.875 -13.546875 L 14.875 0 L 6.25 0 L 6.25 -46.5 L 25.375 -46.5 C 29.40625 -46.5 32.914062 -45.832031 35.90625 -44.5 C 38.894531 -43.175781 41.1875 -41.273438 42.78125 -38.796875 C 44.375 -36.316406 45.171875 -33.367188 45.171875 -29.953125 C 45.171875 -26.453125 44.316406 -23.441406 42.609375 -20.921875 C 40.898438 -18.398438 38.453125 -16.519531 35.265625 -15.28125 L 45.96875 0 Z M 36.46875 -29.953125 C 36.46875 -32.921875 35.492188 -35.203125 33.546875 -36.796875 C 31.597656 -38.390625 28.738281 -39.1875 24.96875 -39.1875 L 14.875 -39.1875 L 14.875 -20.65625 L 24.96875 -20.65625 C 28.738281 -20.65625 31.597656 -21.460938 33.546875 -23.078125 C 35.492188 -24.691406 36.46875 -26.984375 36.46875 -29.953125 Z M 36.46875 -29.953125 "/></g></g></g><g fill="#aaabab" fill-opacity="1"><g transform="translate(220.500522, 398.842265)"><g><path d="M 6.25 -46.5 L 14.875 -46.5 L 14.875 0 L 6.25 0 Z M 6.25 -46.5 "/></g></g></g><g fill="#aaabab" fill-opacity="1"><g transform="translate(269.910569, 398.842265)"><g><path d="M 38 -23.78125 L 46.15625 -23.78125 L 46.15625 -5.25 C 43.769531 -3.34375 40.984375 -1.878906 37.796875 -0.859375 C 34.609375 0.160156 31.332031 0.671875 27.96875 0.671875 C 23.226562 0.671875 18.953125 -0.359375 15.140625 -2.421875 C 11.335938 -4.484375 8.347656 -7.328125 6.171875 -10.953125 C 4.003906 -14.585938 2.921875 -18.6875 2.921875 -23.25 C 2.921875 -27.8125 4.003906 -31.90625 6.171875 -35.53125 C 8.347656 -39.164062 11.347656 -42.007812 15.171875 -44.0625 C 19.003906 -46.125 23.3125 -47.15625 28.09375 -47.15625 C 31.988281 -47.15625 35.53125 -46.515625 38.71875 -45.234375 C 41.90625 -43.953125 44.585938 -42.070312 46.765625 -39.59375 L 41.3125 -34.28125 C 37.769531 -37.820312 33.5 -39.59375 28.5 -39.59375 C 25.21875 -39.59375 22.300781 -38.90625 19.75 -37.53125 C 17.207031 -36.15625 15.21875 -34.226562 13.78125 -31.75 C 12.34375 -29.269531 11.625 -26.4375 11.625 -23.25 C 11.625 -20.144531 12.34375 -17.351562 13.78125 -14.875 C 15.21875 -12.394531 17.207031 -10.445312 19.75 -9.03125 C 22.300781 -7.613281 25.191406 -6.90625 28.421875 -6.90625 C 32.054688 -6.90625 35.25 -7.703125 38 -9.296875 Z M 38 -23.78125 "/></g></g></g><g fill="#aaabab" fill-opacity="1"><g transform="translate(349.388501, 398.842265)"><g><path d="M 47.5625 -46.5 L 47.5625 0 L 38.921875 0 L 38.921875 -19.921875 L 14.875 -19.921875 L 14.875 0 L 6.25 0 L 6.25 -46.5 L 14.875 -46.5 L 14.875 -27.296875 L 38.921875 -27.296875 L 38.921875 -46.5 Z M 47.5625 -46.5 "/></g></g></g><g fill="#aaabab" fill-opacity="1"><g transform="translate(431.388664, 398.842265)"><g><path d="M 15.671875 -39.1875 L 0.265625 -39.1875 L 0.265625 -46.5 L 39.71875 -46.5 L 39.71875 -39.1875 L 24.3125 -39.1875 L 24.3125 0 L 15.671875 0 Z M 15.671875 -39.1875 "/></g></g></g><g fill="#aaabab" fill-opacity="1"><g transform="translate(499.58286, 398.842265)"><g><path d="M 8.109375 0.46875 C 6.597656 0.46875 5.3125 -0.0507812 4.25 -1.09375 C 3.1875 -2.132812 2.65625 -3.453125 2.65625 -5.046875 C 2.65625 -6.679688 3.175781 -8.007812 4.21875 -9.03125 C 5.257812 -10.050781 6.554688 -10.5625 8.109375 -10.5625 C 9.648438 -10.5625 10.941406 -10.050781 11.984375 -9.03125 C 13.023438 -8.007812 13.546875 -6.679688 13.546875 -5.046875 C 13.546875 -3.453125 13.015625 -2.132812 11.953125 -1.09375 C 10.890625 -0.0507812 9.609375 0.46875 8.109375 0.46875 Z M 8.109375 0.46875 "/></g></g></g><g fill="#aaabab" fill-opacity="1"><g transform="translate(544.014773, 398.842265)"><g><path d="M 6.25 -46.5 L 26.5625 -46.5 C 31.53125 -46.5 35.9375 -45.535156 39.78125 -43.609375 C 43.632812 -41.679688 46.625 -38.957031 48.75 -35.4375 C 50.875 -31.914062 51.9375 -27.851562 51.9375 -23.25 C 51.9375 -18.644531 50.875 -14.582031 48.75 -11.0625 C 46.625 -7.539062 43.632812 -4.816406 39.78125 -2.890625 C 35.9375 -0.960938 31.53125 0 26.5625 0 L 6.25 0 Z M 26.171875 -7.3125 C 29.578125 -7.3125 32.578125 -7.960938 35.171875 -9.265625 C 37.765625 -10.566406 39.753906 -12.425781 41.140625 -14.84375 C 42.535156 -17.257812 43.234375 -20.0625 43.234375 -23.25 C 43.234375 -26.4375 42.535156 -29.234375 41.140625 -31.640625 C 39.753906 -34.054688 37.765625 -35.914062 35.171875 -37.21875 C 32.578125 -38.53125 29.578125 -39.1875 26.171875 -39.1875 L 14.875 -39.1875 L 14.875 -7.3125 Z M 26.171875 -7.3125 "/></g></g></g><g fill="#aaabab" fill-opacity="1"><g transform="translate(627.076948, 398.842265)"><g><path d="M 41.109375 -7.234375 L 41.109375 0 L 6.25 0 L 6.25 -46.5 L 40.1875 -46.5 L 40.1875 -39.25 L 14.875 -39.25 L 14.875 -27.171875 L 37.328125 -27.171875 L 37.328125 -20.0625 L 14.875 -20.0625 L 14.875 -7.234375 Z M 41.109375 -7.234375 "/></g></g></g><g fill="#aaabab" fill-opacity="1"><g transform="translate(699.784648, 398.842265)"><g><path d="M 48.75 -46.5 L 28.5 0 L 20 0 L -0.328125 -46.5 L 9.03125 -46.5 L 24.515625 -10.625 L 40.125 -46.5 Z M 48.75 -46.5 "/></g></g></g></svg>