<svg xmlns="http://www.w3.org/2000/svg" xmlns:xlink="http://www.w3.org/1999/xlink" zoomAndPan="magnify" preserveAspectRatio="xMidYMid meet" version="1.0" viewBox="0.73 352.42 748 47.84"><defs><g/></defs><g fill="#112d4e" fill-opacity="1"><g transform="translate(1.592633, 399.59215)"><g><path d="M 13.484375 0.671875 C 10.515625 0.671875 7.78125 0.0820312 5.28125 -1.09375 C 2.78125 -2.269531 0.734375 -3.921875 -0.859375 -6.046875 L 4.046875 -11.953125 C 6.617188 -8.410156 9.695312 -6.640625 13.28125 -6.640625 C 18.113281 -6.640625 20.53125 -9.5 20.53125 -15.21875 L 20.53125 -39.265625 L 3.984375 -39.265625 L 3.984375 -46.5 L 29.171875 -46.5 L 29.171875 -15.671875 C 29.171875 -10.222656 27.835938 -6.132812 25.171875 -3.40625 C 22.515625 -0.6875 18.617188 0.671875 13.484375 0.671875 Z M 13.484375 0.671875 "/></g></g></g><g fill="#112d4e" fill-opacity="1"><g transform="translate(64.839582, 399.59215)"><g><path d="M 39.203125 -24.1875 C 41.765625 -23.34375 43.796875 -21.9375 45.296875 -19.96875 C 46.804688 -18 47.5625 -15.550781 47.5625 -12.625 C 47.5625 -8.59375 46.007812 -5.476562 42.90625 -3.28125 C 39.8125 -1.09375 35.296875 0 29.359375 0 L 6.25 0 L 6.25 -46.5 L 28.03125 -46.5 C 33.53125 -46.5 37.757812 -45.425781 40.71875 -43.28125 C 43.6875 -41.132812 45.171875 -38.179688 45.171875 -34.421875 C 45.171875 -32.109375 44.640625 -30.066406 43.578125 -28.296875 C 42.515625 -26.523438 41.054688 -25.15625 39.203125 -24.1875 Z M 14.875 -39.734375 L 14.875 -26.90625 L 27.109375 -26.90625 C 30.117188 -26.90625 32.429688 -27.445312 34.046875 -28.53125 C 35.660156 -29.613281 36.46875 -31.195312 36.46875 -33.28125 C 36.46875 -35.40625 35.660156 -37.007812 34.046875 -38.09375 C 32.429688 -39.1875 30.117188 -39.734375 27.109375 -39.734375 Z M 28.828125 -6.78125 C 35.515625 -6.78125 38.859375 -9.015625 38.859375 -13.484375 C 38.859375 -17.960938 35.515625 -20.203125 28.828125 -20.203125 L 14.875 -20.203125 L 14.875 -6.78125 Z M 28.828125 -6.78125 "/></g></g></g><g fill="#112d4e" fill-opacity="1"><g transform="translate(143.632013, 399.59215)"><g><path d="M 36.671875 0 L 27.171875 -13.625 C 26.773438 -13.570312 26.175781 -13.546875 25.375 -13.546875 L 14.875 -13.546875 L 14.875 0 L 6.25 0 L 6.25 -46.5 L 25.375 -46.5 C 29.40625 -46.5 32.914062 -45.832031 35.90625 -44.5 C 38.894531 -43.175781 41.1875 -41.273438 42.78125 -38.796875 C 44.375 -36.316406 45.171875 -33.375 45.171875 -29.96875 C 45.171875 -26.46875 44.316406 -23.453125 42.609375 -20.921875 C 40.910156 -18.398438 38.46875 -16.519531 35.28125 -15.28125 L 45.96875 0 Z M 36.46875 -29.96875 C 36.46875 -32.9375 35.492188 -35.21875 33.546875 -36.8125 C 31.597656 -38.40625 28.742188 -39.203125 24.984375 -39.203125 L 14.875 -39.203125 L 14.875 -20.65625 L 24.984375 -20.65625 C 28.742188 -20.65625 31.597656 -21.460938 33.546875 -23.078125 C 35.492188 -24.703125 36.46875 -27 36.46875 -29.96875 Z M 36.46875 -29.96875 "/></g></g></g><g fill="#112d4e" fill-opacity="1"><g transform="translate(220.431444, 399.59215)"><g><path d="M 6.25 -46.5 L 14.875 -46.5 L 14.875 0 L 6.25 0 Z M 6.25 -46.5 "/></g></g></g><g fill="#112d4e" fill-opacity="1"><g transform="translate(269.86019, 399.59215)"><g><path d="M 38 -23.78125 L 46.171875 -23.78125 L 46.171875 -5.25 C 43.785156 -3.34375 40.992188 -1.878906 37.796875 -0.859375 C 34.609375 0.160156 31.332031 0.671875 27.96875 0.671875 C 23.226562 0.671875 18.953125 -0.359375 15.140625 -2.421875 C 11.335938 -4.484375 8.347656 -7.328125 6.171875 -10.953125 C 4.003906 -14.585938 2.921875 -18.6875 2.921875 -23.25 C 2.921875 -27.8125 4.003906 -31.90625 6.171875 -35.53125 C 8.347656 -39.164062 11.347656 -42.015625 15.171875 -44.078125 C 19.003906 -46.140625 23.316406 -47.171875 28.109375 -47.171875 C 32.003906 -47.171875 35.546875 -46.523438 38.734375 -45.234375 C 41.921875 -43.953125 44.597656 -42.070312 46.765625 -39.59375 L 41.328125 -34.28125 C 37.785156 -37.820312 33.507812 -39.59375 28.5 -39.59375 C 25.21875 -39.59375 22.300781 -38.90625 19.75 -37.53125 C 17.207031 -36.164062 15.21875 -34.238281 13.78125 -31.75 C 12.34375 -29.269531 11.625 -26.4375 11.625 -23.25 C 11.625 -20.15625 12.34375 -17.363281 13.78125 -14.875 C 15.21875 -12.394531 17.207031 -10.445312 19.75 -9.03125 C 22.300781 -7.613281 25.195312 -6.90625 28.4375 -6.90625 C 32.070312 -6.90625 35.257812 -7.703125 38 -9.296875 Z M 38 -23.78125 "/></g></g></g><g fill="#112d4e" fill-opacity="1"><g transform="translate(349.383372, 399.59215)"><g><path d="M 47.5625 -46.5 L 47.5625 0 L 38.9375 0 L 38.9375 -19.9375 L 14.875 -19.9375 L 14.875 0 L 6.25 0 L 6.25 -46.5 L 14.875 -46.5 L 14.875 -27.3125 L 38.9375 -27.3125 L 38.9375 -46.5 Z M 47.5625 -46.5 "/></g></g></g><g fill="#112d4e" fill-opacity="1"><g transform="translate(431.431052, 399.59215)"><g><path d="M 15.671875 -39.203125 L 0.265625 -39.203125 L 0.265625 -46.5 L 39.734375 -46.5 L 39.734375 -39.203125 L 24.3125 -39.203125 L 24.3125 0 L 15.671875 0 Z M 15.671875 -39.203125 "/></g></g></g><g fill="#112d4e" fill-opacity="1"><g transform="translate(499.660541, 399.59215)"><g><path d="M 8.109375 0.46875 C 6.597656 0.46875 5.3125 -0.0507812 4.25 -1.09375 C 3.1875 -2.132812 2.65625 -3.453125 2.65625 -5.046875 C 2.65625 -6.679688 3.175781 -8.007812 4.21875 -9.03125 C 5.257812 -10.050781 6.554688 -10.5625 8.109375 -10.5625 C 9.660156 -10.5625 10.953125 -10.050781 11.984375 -9.03125 C 13.023438 -8.007812 13.546875 -6.679688 13.546875 -5.046875 C 13.546875 -3.453125 13.015625 -2.132812 11.953125 -1.09375 C 10.890625 -0.0507812 9.609375 0.46875 8.109375 0.46875 Z M 8.109375 0.46875 "/></g></g></g><g fill="#112d4e" fill-opacity="1"><g transform="translate(544.106736, 399.59215)"><g><path d="M 6.25 -46.5 L 26.578125 -46.5 C 31.535156 -46.5 35.941406 -45.535156 39.796875 -43.609375 C 43.648438 -41.679688 46.640625 -38.957031 48.765625 -35.4375 C 50.890625 -31.914062 51.953125 -27.851562 51.953125 -23.25 C 51.953125 -18.644531 50.890625 -14.582031 48.765625 -11.0625 C 46.640625 -7.539062 43.648438 -4.816406 39.796875 -2.890625 C 35.941406 -0.960938 31.535156 0 26.578125 0 L 6.25 0 Z M 26.171875 -7.3125 C 29.585938 -7.3125 32.585938 -7.960938 35.171875 -9.265625 C 37.765625 -10.578125 39.757812 -12.4375 41.15625 -14.84375 C 42.550781 -17.257812 43.25 -20.0625 43.25 -23.25 C 43.25 -26.4375 42.550781 -29.238281 41.15625 -31.65625 C 39.757812 -34.070312 37.765625 -35.929688 35.171875 -37.234375 C 32.585938 -38.546875 29.585938 -39.203125 26.171875 -39.203125 L 14.875 -39.203125 L 14.875 -7.3125 Z M 26.171875 -7.3125 "/></g></g></g><g fill="#112d4e" fill-opacity="1"><g transform="translate(627.217343, 399.59215)"><g><path d="M 41.125 -7.234375 L 41.125 0 L 6.25 0 L 6.25 -46.5 L 40.1875 -46.5 L 40.1875 -39.265625 L 14.875 -39.265625 L 14.875 -27.171875 L 37.34375 -27.171875 L 37.34375 -20.0625 L 14.875 -20.0625 L 14.875 -7.234375 Z M 41.125 -7.234375 "/></g></g></g><g fill="#112d4e" fill-opacity="1"><g transform="translate(699.964319, 399.59215)"><g><path d="M 48.765625 -46.5 L 28.5 0 L 20 0 L -0.328125 -46.5 L 9.03125 -46.5 L 24.515625 -10.625 L 40.125 -46.5 Z M 48.765625 -46.5 "/></g></g></g></svg>