<svg xmlns="http://www.w3.org/2000/svg" xmlns:xlink="http://www.w3.org/1999/xlink" zoomAndPan="magnify" preserveAspectRatio="xMidYMid meet" version="1.0" viewBox="0.53 351.65 747.98 47.86"><defs><g/></defs><g fill="#000000" fill-opacity="1"><g transform="translate(1.390985, 398.833974)"><g><path d="M 13.484375 0.671875 C 10.515625 0.671875 7.78125 0.0820312 5.28125 -1.09375 C 2.78125 -2.269531 0.734375 -3.921875 -0.859375 -6.046875 L 4.046875 -11.96875 C 6.617188 -8.414062 9.703125 -6.640625 13.296875 -6.640625 C 18.117188 -6.640625 20.53125 -9.5 20.53125 -15.21875 L 20.53125 -39.28125 L 3.984375 -39.28125 L 3.984375 -46.515625 L 29.171875 -46.515625 L 29.171875 -15.6875 C 29.171875 -10.238281 27.84375 -6.148438 25.1875 -3.421875 C 22.53125 -0.691406 18.628906 0.671875 13.484375 0.671875 Z M 13.484375 0.671875 "/></g></g></g><g fill="#000000" fill-opacity="1"><g transform="translate(64.637015, 398.833974)"><g><path d="M 39.203125 -24.1875 C 41.773438 -23.34375 43.8125 -21.9375 45.3125 -19.96875 C 46.820312 -18 47.578125 -15.550781 47.578125 -12.625 C 47.578125 -8.59375 46.023438 -5.476562 42.921875 -3.28125 C 39.828125 -1.09375 35.3125 0 29.375 0 L 6.25 0 L 6.25 -46.515625 L 28.046875 -46.515625 C 33.535156 -46.515625 37.765625 -45.441406 40.734375 -43.296875 C 43.703125 -41.148438 45.1875 -38.191406 45.1875 -34.421875 C 45.1875 -32.117188 44.65625 -30.082031 43.59375 -28.3125 C 42.53125 -26.539062 41.066406 -25.164062 39.203125 -24.1875 Z M 14.890625 -39.734375 L 14.890625 -26.90625 L 27.109375 -26.90625 C 30.117188 -26.90625 32.429688 -27.445312 34.046875 -28.53125 C 35.671875 -29.625 36.484375 -31.210938 36.484375 -33.296875 C 36.484375 -35.421875 35.671875 -37.023438 34.046875 -38.109375 C 32.429688 -39.191406 30.117188 -39.734375 27.109375 -39.734375 Z M 28.84375 -6.78125 C 35.53125 -6.78125 38.875 -9.015625 38.875 -13.484375 C 38.875 -17.960938 35.53125 -20.203125 28.84375 -20.203125 L 14.890625 -20.203125 L 14.890625 -6.78125 Z M 28.84375 -6.78125 "/></g></g></g><g fill="#000000" fill-opacity="1"><g transform="translate(143.422149, 398.833974)"><g><path d="M 36.6875 0 L 27.171875 -13.625 C 26.773438 -13.582031 26.179688 -13.5625 25.390625 -13.5625 L 14.890625 -13.5625 L 14.890625 0 L 6.25 0 L 6.25 -46.515625 L 25.390625 -46.515625 C 29.421875 -46.515625 32.929688 -45.847656 35.921875 -44.515625 C 38.910156 -43.191406 41.203125 -41.289062 42.796875 -38.8125 C 44.390625 -36.332031 45.1875 -33.382812 45.1875 -29.96875 C 45.1875 -26.46875 44.332031 -23.453125 42.625 -20.921875 C 40.925781 -18.398438 38.476562 -16.519531 35.28125 -15.28125 L 45.984375 0 Z M 36.484375 -29.96875 C 36.484375 -32.9375 35.507812 -35.21875 33.5625 -36.8125 C 31.613281 -38.40625 28.753906 -39.203125 24.984375 -39.203125 L 14.890625 -39.203125 L 14.890625 -20.671875 L 24.984375 -20.671875 C 28.753906 -20.671875 31.613281 -21.476562 33.5625 -23.09375 C 35.507812 -24.707031 36.484375 -27 36.484375 -29.96875 Z M 36.484375 -29.96875 "/></g></g></g><g fill="#000000" fill-opacity="1"><g transform="translate(220.2151, 398.833974)"><g><path d="M 6.25 -46.515625 L 14.890625 -46.515625 L 14.890625 0 L 6.25 0 Z M 6.25 -46.515625 "/></g></g></g><g fill="#000000" fill-opacity="1"><g transform="translate(269.64858, 398.833974)"><g><path d="M 38.015625 -23.796875 L 46.1875 -23.796875 L 46.1875 -5.25 C 43.789062 -3.34375 41 -1.878906 37.8125 -0.859375 C 34.625 0.160156 31.347656 0.671875 27.984375 0.671875 C 23.234375 0.671875 18.953125 -0.359375 15.140625 -2.421875 C 11.335938 -4.484375 8.347656 -7.328125 6.171875 -10.953125 C 4.003906 -14.585938 2.921875 -18.691406 2.921875 -23.265625 C 2.921875 -27.828125 4.003906 -31.921875 6.171875 -35.546875 C 8.347656 -39.179688 11.351562 -42.03125 15.1875 -44.09375 C 19.019531 -46.15625 23.328125 -47.1875 28.109375 -47.1875 C 32.003906 -47.1875 35.546875 -46.539062 38.734375 -45.25 C 41.929688 -43.96875 44.613281 -42.085938 46.78125 -39.609375 L 41.328125 -34.296875 C 37.785156 -37.835938 33.515625 -39.609375 28.515625 -39.609375 C 25.234375 -39.609375 22.316406 -38.921875 19.765625 -37.546875 C 17.222656 -36.171875 15.226562 -34.242188 13.78125 -31.765625 C 12.34375 -29.285156 11.625 -26.453125 11.625 -23.265625 C 11.625 -20.160156 12.34375 -17.367188 13.78125 -14.890625 C 15.226562 -12.410156 17.222656 -10.457031 19.765625 -9.03125 C 22.316406 -7.613281 25.207031 -6.90625 28.4375 -6.90625 C 32.070312 -6.90625 35.265625 -7.703125 38.015625 -9.296875 Z M 38.015625 -23.796875 "/></g></g></g><g fill="#000000" fill-opacity="1"><g transform="translate(349.164202, 398.833974)"><g><path d="M 47.578125 -46.515625 L 47.578125 0 L 38.9375 0 L 38.9375 -19.9375 L 14.890625 -19.9375 L 14.890625 0 L 6.25 0 L 6.25 -46.515625 L 14.890625 -46.515625 L 14.890625 -27.3125 L 38.9375 -27.3125 L 38.9375 -46.515625 Z M 47.578125 -46.515625 "/></g></g></g><g fill="#000000" fill-opacity="1"><g transform="translate(431.203253, 398.833974)"><g><path d="M 15.6875 -39.203125 L 0.265625 -39.203125 L 0.265625 -46.515625 L 39.734375 -46.515625 L 39.734375 -39.203125 L 24.328125 -39.203125 L 24.328125 0 L 15.6875 0 Z M 15.6875 -39.203125 "/></g></g></g><g fill="#000000" fill-opacity="1"><g transform="translate(499.42979, 398.833974)"><g><path d="M 8.109375 0.46875 C 6.597656 0.46875 5.3125 -0.0507812 4.25 -1.09375 C 3.1875 -2.132812 2.65625 -3.453125 2.65625 -5.046875 C 2.65625 -6.691406 3.175781 -8.019531 4.21875 -9.03125 C 5.257812 -10.050781 6.554688 -10.5625 8.109375 -10.5625 C 9.660156 -10.5625 10.957031 -10.050781 12 -9.03125 C 13.039062 -8.019531 13.5625 -6.691406 13.5625 -5.046875 C 13.5625 -3.453125 13.023438 -2.132812 11.953125 -1.09375 C 10.890625 -0.0507812 9.609375 0.46875 8.109375 0.46875 Z M 8.109375 0.46875 "/></g></g></g><g fill="#000000" fill-opacity="1"><g transform="translate(543.882775, 398.833974)"><g><path d="M 6.25 -46.515625 L 26.578125 -46.515625 C 31.546875 -46.515625 35.957031 -45.550781 39.8125 -43.625 C 43.664062 -41.695312 46.65625 -38.972656 48.78125 -35.453125 C 50.90625 -31.929688 51.96875 -27.867188 51.96875 -23.265625 C 51.96875 -18.648438 50.90625 -14.582031 48.78125 -11.0625 C 46.65625 -7.539062 43.664062 -4.816406 39.8125 -2.890625 C 35.957031 -0.960938 31.546875 0 26.578125 0 L 6.25 0 Z M 26.1875 -7.3125 C 29.59375 -7.3125 32.59375 -7.960938 35.1875 -9.265625 C 37.78125 -10.578125 39.773438 -12.4375 41.171875 -14.84375 C 42.566406 -17.257812 43.265625 -20.066406 43.265625 -23.265625 C 43.265625 -26.453125 42.566406 -29.25 41.171875 -31.65625 C 39.773438 -34.070312 37.78125 -35.929688 35.1875 -37.234375 C 32.59375 -38.546875 29.59375 -39.203125 26.1875 -39.203125 L 14.890625 -39.203125 L 14.890625 -7.3125 Z M 26.1875 -7.3125 "/></g></g></g><g fill="#000000" fill-opacity="1"><g transform="translate(626.984341, 398.833974)"><g><path d="M 41.140625 -7.25 L 41.140625 0 L 6.25 0 L 6.25 -46.515625 L 40.203125 -46.515625 L 40.203125 -39.28125 L 14.890625 -39.28125 L 14.890625 -27.171875 L 37.34375 -27.171875 L 37.34375 -20.0625 L 14.890625 -20.0625 L 14.890625 -7.25 Z M 41.140625 -7.25 "/></g></g></g><g fill="#000000" fill-opacity="1"><g transform="translate(699.726521, 398.833974)"><g><path d="M 48.78125 -46.515625 L 28.515625 0 L 20 0 L -0.328125 -46.515625 L 9.03125 -46.515625 L 24.515625 -10.625 L 40.140625 -46.515625 Z M 48.78125 -46.515625 "/></g></g></g></svg>