<svg xmlns="http://www.w3.org/2000/svg" xmlns:xlink="http://www.w3.org/1999/xlink" zoomAndPan="magnify" preserveAspectRatio="xMidYMid meet" version="1.0" viewBox="-75 -75 900 900"><defs><g/></defs><rect x="-75" width="900" fill="#ffffff" y="-74.999999" height="899.999994" fill-opacity="1"/><rect x="-75" width="900" fill="#ffffff" y="-74.999999" height="899.999994" fill-opacity="1"/><rect x="-75" width="900" fill="#000000" y="-74.999999" height="899.999994" fill-opacity="1"/><g fill="#aaabab" fill-opacity="1"><g transform="translate(162.864163, 532.124994)"><g><path d="M 163.953125 -271.96875 L 163.953125 -83.921875 C 163.953125 -56.722656 156.441406 -35.613281 141.421875 -20.59375 C 126.398438 -5.570312 105.679688 1.9375 79.265625 1.9375 C 47.140625 1.9375 20.457031 -11.140625 -0.78125 -37.296875 L 20.984375 -72.265625 C 39.367188 -52.316406 58.664062 -42.34375 78.875 -42.34375 C 91.300781 -42.34375 100.878906 -46.035156 107.609375 -53.421875 C 114.347656 -60.804688 117.71875 -71.492188 117.71875 -85.484375 L 117.71875 -230.78125 L 23.703125 -230.78125 L 23.703125 -271.96875 Z M 163.953125 -271.96875 "/></g></g></g><g fill="#aaabab" fill-opacity="1"><g transform="translate(312.835798, 532.124994)"><g><path d="M 35.75 -271.96875 L 153.859375 -271.96875 C 182.085938 -271.96875 204.359375 -265.945312 220.671875 -253.90625 C 236.992188 -241.863281 245.15625 -225.222656 245.15625 -203.984375 C 245.15625 -188.703125 240.878906 -175.6875 232.328125 -164.9375 C 223.785156 -154.1875 212.132812 -147 197.375 -143.375 C 215.507812 -140.257812 229.753906 -132.613281 240.109375 -120.4375 C 250.472656 -108.269531 255.65625 -92.988281 255.65625 -74.59375 C 255.65625 -51.28125 246.847656 -33.019531 229.234375 -19.8125 C 211.617188 -6.601562 187.398438 0 156.578125 0 L 35.75 0 Z M 81.59375 -231.171875 L 81.59375 -159.296875 L 151.53125 -159.296875 C 166.03125 -159.296875 177.425781 -162.53125 185.71875 -169 C 194.007812 -175.476562 198.15625 -184.414062 198.15625 -195.8125 C 198.15625 -207.21875 194.070312 -215.960938 185.90625 -222.046875 C 177.75 -228.128906 166.289062 -231.171875 151.53125 -231.171875 Z M 81.59375 -118.890625 L 81.59375 -40.796875 L 151.53125 -40.796875 C 169.65625 -40.796875 183.703125 -44.226562 193.671875 -51.09375 C 203.648438 -57.957031 208.640625 -67.734375 208.640625 -80.421875 C 208.640625 -92.335938 203.585938 -101.726562 193.484375 -108.59375 C 183.378906 -115.457031 169.394531 -118.890625 151.53125 -118.890625 Z M 81.59375 -118.890625 "/></g></g></g><g fill="#ffffff" fill-opacity="1"><g transform="translate(33.914124, 417.372276)"><g><path d="M 12.5 0.515625 C 9.8125 0.515625 7.3125 -0.0507812 5 -1.1875 C 2.6875 -2.320312 0.828125 -3.914062 -0.578125 -5.96875 L 3.140625 -10.328125 C 5.617188 -6.773438 8.738281 -5 12.5 -5 C 15.019531 -5 16.929688 -5.769531 18.234375 -7.3125 C 19.546875 -8.851562 20.203125 -11.117188 20.203125 -14.109375 L 20.203125 -39.3125 L 3.96875 -39.3125 L 3.96875 -44.890625 L 26.546875 -44.890625 L 26.546875 -14.421875 C 26.546875 -9.460938 25.359375 -5.734375 22.984375 -3.234375 C 20.617188 -0.734375 17.125 0.515625 12.5 0.515625 Z M 12.5 0.515625 "/></g></g></g><g fill="#ffffff" fill-opacity="1"><g transform="translate(66.80419, 417.372276)"><g><path d="M 36.9375 -23.28125 C 39.539062 -22.550781 41.59375 -21.234375 43.09375 -19.328125 C 44.59375 -17.429688 45.34375 -15.03125 45.34375 -12.125 C 45.34375 -8.226562 43.875 -5.234375 40.9375 -3.140625 C 38.007812 -1.046875 33.75 0 28.15625 0 L 6.734375 0 L 6.734375 -44.890625 L 26.875 -44.890625 C 32 -44.890625 35.960938 -43.863281 38.765625 -41.8125 C 41.566406 -39.757812 42.96875 -36.914062 42.96875 -33.28125 C 42.96875 -30.925781 42.421875 -28.894531 41.328125 -27.1875 C 40.234375 -25.476562 38.769531 -24.175781 36.9375 -23.28125 Z M 13.140625 -39.6875 L 13.140625 -25.328125 L 26.296875 -25.328125 C 29.585938 -25.328125 32.117188 -25.9375 33.890625 -27.15625 C 35.660156 -28.375 36.546875 -30.160156 36.546875 -32.515625 C 36.546875 -34.859375 35.660156 -36.640625 33.890625 -37.859375 C 32.117188 -39.078125 29.585938 -39.6875 26.296875 -39.6875 Z M 27.890625 -5.1875 C 31.523438 -5.1875 34.257812 -5.785156 36.09375 -6.984375 C 37.9375 -8.179688 38.859375 -10.0625 38.859375 -12.625 C 38.859375 -17.632812 35.203125 -20.140625 27.890625 -20.140625 L 13.140625 -20.140625 L 13.140625 -5.1875 Z M 27.890625 -5.1875 "/></g></g></g><g fill="#ffffff" fill-opacity="1"><g transform="translate(115.337883, 417.372276)"><g><path d="M 36.75 0 L 27.0625 -13.78125 C 25.863281 -13.695312 24.921875 -13.65625 24.234375 -13.65625 L 13.140625 -13.65625 L 13.140625 0 L 6.734375 0 L 6.734375 -44.890625 L 24.234375 -44.890625 C 30.046875 -44.890625 34.617188 -43.5 37.953125 -40.71875 C 41.296875 -37.9375 42.96875 -34.109375 42.96875 -29.234375 C 42.96875 -25.773438 42.109375 -22.828125 40.390625 -20.390625 C 38.679688 -17.953125 36.25 -16.175781 33.09375 -15.0625 L 43.734375 0 Z M 24.046875 -19.109375 C 28.109375 -19.109375 31.207031 -19.984375 33.34375 -21.734375 C 35.476562 -23.492188 36.546875 -25.992188 36.546875 -29.234375 C 36.546875 -32.484375 35.476562 -34.972656 33.34375 -36.703125 C 31.207031 -38.441406 28.109375 -39.3125 24.046875 -39.3125 L 13.140625 -39.3125 L 13.140625 -19.109375 Z M 24.046875 -19.109375 "/></g></g></g><g fill="#ffffff" fill-opacity="1"><g transform="translate(161.948179, 417.372276)"><g><path d="M 6.734375 -44.890625 L 13.140625 -44.890625 L 13.140625 0 L 6.734375 0 Z M 6.734375 -44.890625 "/></g></g></g><g fill="#ffffff" fill-opacity="1"><g transform="translate(181.82327, 417.372276)"><g><path d="M 37.828125 -22.703125 L 43.984375 -22.703125 L 43.984375 -5.1875 C 41.765625 -3.351562 39.179688 -1.941406 36.234375 -0.953125 C 33.285156 0.0234375 30.207031 0.515625 27 0.515625 C 22.46875 0.515625 18.382812 -0.476562 14.75 -2.46875 C 11.113281 -4.457031 8.257812 -7.191406 6.1875 -10.671875 C 4.113281 -14.160156 3.078125 -18.082031 3.078125 -22.4375 C 3.078125 -26.800781 4.113281 -30.734375 6.1875 -34.234375 C 8.257812 -37.742188 11.125 -40.484375 14.78125 -42.453125 C 18.4375 -44.421875 22.550781 -45.40625 27.125 -45.40625 C 30.71875 -45.40625 33.976562 -44.816406 36.90625 -43.640625 C 39.832031 -42.460938 42.320312 -40.738281 44.375 -38.46875 L 40.40625 -34.5 C 36.8125 -37.957031 32.46875 -39.6875 27.375 -39.6875 C 23.957031 -39.6875 20.890625 -38.945312 18.171875 -37.46875 C 15.460938 -36 13.335938 -33.945312 11.796875 -31.3125 C 10.253906 -28.6875 9.484375 -25.726562 9.484375 -22.4375 C 9.484375 -19.1875 10.253906 -16.25 11.796875 -13.625 C 13.335938 -11 15.460938 -8.9375 18.171875 -7.4375 C 20.890625 -5.9375 23.9375 -5.1875 27.3125 -5.1875 C 31.332031 -5.1875 34.835938 -6.148438 37.828125 -8.078125 Z M 37.828125 -22.703125 "/></g></g></g><g fill="#ffffff" fill-opacity="1"><g transform="translate(231.318656, 417.372276)"><g><path d="M 45.34375 -44.890625 L 45.34375 0 L 38.921875 0 L 38.921875 -20 L 13.140625 -20 L 13.140625 0 L 6.734375 0 L 6.734375 -44.890625 L 13.140625 -44.890625 L 13.140625 -25.578125 L 38.921875 -25.578125 L 38.921875 -44.890625 Z M 45.34375 -44.890625 "/></g></g></g><g fill="#ffffff" fill-opacity="1"><g transform="translate(283.378559, 417.372276)"><g><path d="M 15.640625 -39.3125 L 0.25 -39.3125 L 0.25 -44.890625 L 37.390625 -44.890625 L 37.390625 -39.3125 L 22 -39.3125 L 22 0 L 15.640625 0 Z M 15.640625 -39.3125 "/></g></g></g><g fill="#ffffff" fill-opacity="1"><g transform="translate(321.013002, 417.372276)"><g><path d="M 7.3125 0.390625 C 6.113281 0.390625 5.085938 -0.0234375 4.234375 -0.859375 C 3.378906 -1.691406 2.953125 -2.753906 2.953125 -4.046875 C 2.953125 -5.285156 3.378906 -6.320312 4.234375 -7.15625 C 5.085938 -7.988281 6.113281 -8.40625 7.3125 -8.40625 C 8.507812 -8.40625 9.515625 -8 10.328125 -7.1875 C 11.140625 -6.375 11.546875 -5.328125 11.546875 -4.046875 C 11.546875 -2.753906 11.128906 -1.691406 10.296875 -0.859375 C 9.460938 -0.0234375 8.46875 0.390625 7.3125 0.390625 Z M 7.3125 0.390625 "/></g></g></g><g fill="#ffffff" fill-opacity="1"><g transform="translate(335.566682, 417.372276)"><g><path d="M 6.734375 -44.890625 L 25.65625 -44.890625 C 30.394531 -44.890625 34.601562 -43.945312 38.28125 -42.0625 C 41.957031 -40.1875 44.8125 -37.546875 46.84375 -34.140625 C 48.875 -30.742188 49.890625 -26.84375 49.890625 -22.4375 C 49.890625 -18.039062 48.875 -14.140625 46.84375 -10.734375 C 44.8125 -7.335938 41.957031 -4.695312 38.28125 -2.8125 C 34.601562 -0.9375 30.394531 0 25.65625 0 L 6.734375 0 Z M 25.265625 -5.578125 C 28.898438 -5.578125 32.09375 -6.28125 34.84375 -7.6875 C 37.601562 -9.101562 39.734375 -11.082031 41.234375 -13.625 C 42.734375 -16.164062 43.484375 -19.101562 43.484375 -22.4375 C 43.484375 -25.78125 42.734375 -28.722656 41.234375 -31.265625 C 39.734375 -33.804688 37.601562 -35.78125 34.84375 -37.1875 C 32.09375 -38.601562 28.898438 -39.3125 25.265625 -39.3125 L 13.140625 -39.3125 L 13.140625 -5.578125 Z M 25.265625 -5.578125 "/></g></g></g><g fill="#ffffff" fill-opacity="1"><g transform="translate(388.524168, 417.372276)"><g><path d="M 39.3125 -5.578125 L 39.3125 0 L 6.734375 0 L 6.734375 -44.890625 L 38.40625 -44.890625 L 38.40625 -39.3125 L 13.140625 -39.3125 L 13.140625 -25.515625 L 35.65625 -25.515625 L 35.65625 -20.078125 L 13.140625 -20.078125 L 13.140625 -5.578125 Z M 39.3125 -5.578125 "/></g></g></g><g fill="#ffffff" fill-opacity="1"><g transform="translate(431.480022, 417.372276)"><g><path d="M 45.71875 -44.890625 L 26.03125 0 L 19.6875 0 L -0.0625 -44.890625 L 6.859375 -44.890625 L 23.015625 -8.015625 L 39.3125 -44.890625 Z M 45.71875 -44.890625 "/></g></g></g><g fill="#ffffff" fill-opacity="1"><g transform="translate(477.128625, 417.372276)"><g/></g></g><g fill="#ffffff" fill-opacity="1"><g transform="translate(494.375099, 417.372276)"><g><path d="M 34.625 -5.578125 L 34.625 0 L 2.375 0 L 2.375 -4.359375 L 20.640625 -22 C 22.867188 -24.132812 24.367188 -25.976562 25.140625 -27.53125 C 25.910156 -29.09375 26.296875 -30.664062 26.296875 -32.25 C 26.296875 -34.601562 25.472656 -36.429688 23.828125 -37.734375 C 22.179688 -39.035156 19.816406 -39.6875 16.734375 -39.6875 C 11.773438 -39.6875 7.953125 -38.0625 5.265625 -34.8125 L 0.890625 -38.609375 C 2.648438 -40.742188 4.953125 -42.410156 7.796875 -43.609375 C 10.640625 -44.804688 13.8125 -45.40625 17.3125 -45.40625 C 22.019531 -45.40625 25.757812 -44.28125 28.53125 -42.03125 C 31.3125 -39.789062 32.703125 -36.742188 32.703125 -32.890625 C 32.703125 -30.503906 32.1875 -28.238281 31.15625 -26.09375 C 30.132812 -23.957031 28.191406 -21.519531 25.328125 -18.78125 L 11.609375 -5.578125 Z M 34.625 -5.578125 "/></g></g></g><g fill="#ffffff" fill-opacity="1"><g transform="translate(531.176092, 417.372276)"><g><path d="M 21.421875 0.515625 C 17.867188 0.515625 14.710938 -0.390625 11.953125 -2.203125 C 9.203125 -4.023438 7.035156 -6.664062 5.453125 -10.125 C 3.867188 -13.59375 3.078125 -17.695312 3.078125 -22.4375 C 3.078125 -27.1875 3.867188 -31.289062 5.453125 -34.75 C 7.035156 -38.21875 9.203125 -40.859375 11.953125 -42.671875 C 14.710938 -44.492188 17.867188 -45.40625 21.421875 -45.40625 C 24.921875 -45.40625 28.050781 -44.492188 30.8125 -42.671875 C 33.570312 -40.859375 35.738281 -38.21875 37.3125 -34.75 C 38.894531 -31.289062 39.6875 -27.1875 39.6875 -22.4375 C 39.6875 -17.695312 38.894531 -13.59375 37.3125 -10.125 C 35.738281 -6.664062 33.570312 -4.023438 30.8125 -2.203125 C 28.050781 -0.390625 24.921875 0.515625 21.421875 0.515625 Z M 21.421875 -5.1875 C 25.003906 -5.1875 27.875 -6.660156 30.03125 -9.609375 C 32.195312 -12.566406 33.28125 -16.84375 33.28125 -22.4375 C 33.28125 -28.039062 32.195312 -32.316406 30.03125 -35.265625 C 27.875 -38.210938 25.003906 -39.6875 21.421875 -39.6875 C 17.785156 -39.6875 14.882812 -38.210938 12.71875 -35.265625 C 10.5625 -32.316406 9.484375 -28.039062 9.484375 -22.4375 C 9.484375 -16.84375 10.5625 -12.566406 12.71875 -9.609375 C 14.882812 -6.660156 17.785156 -5.1875 21.421875 -5.1875 Z M 21.421875 -5.1875 "/></g></g></g><g fill="#ffffff" fill-opacity="1"><g transform="translate(573.939594, 417.372276)"><g><path d="M 34.625 -5.578125 L 34.625 0 L 2.375 0 L 2.375 -4.359375 L 20.640625 -22 C 22.867188 -24.132812 24.367188 -25.976562 25.140625 -27.53125 C 25.910156 -29.09375 26.296875 -30.664062 26.296875 -32.25 C 26.296875 -34.601562 25.472656 -36.429688 23.828125 -37.734375 C 22.179688 -39.035156 19.816406 -39.6875 16.734375 -39.6875 C 11.773438 -39.6875 7.953125 -38.0625 5.265625 -34.8125 L 0.890625 -38.609375 C 2.648438 -40.742188 4.953125 -42.410156 7.796875 -43.609375 C 10.640625 -44.804688 13.8125 -45.40625 17.3125 -45.40625 C 22.019531 -45.40625 25.757812 -44.28125 28.53125 -42.03125 C 31.3125 -39.789062 32.703125 -36.742188 32.703125 -32.890625 C 32.703125 -30.503906 32.1875 -28.238281 31.15625 -26.09375 C 30.132812 -23.957031 28.191406 -21.519531 25.328125 -18.78125 L 11.609375 -5.578125 Z M 34.625 -5.578125 "/></g></g></g><g fill="#ffffff" fill-opacity="1"><g transform="translate(610.740541, 417.372276)"><g><path d="M 20.265625 -26.03125 C 24.671875 -25.601562 28.023438 -24.242188 30.328125 -21.953125 C 32.640625 -19.671875 33.796875 -16.753906 33.796875 -13.203125 C 33.796875 -10.640625 33.15625 -8.320312 31.875 -6.25 C 30.59375 -4.175781 28.675781 -2.53125 26.125 -1.3125 C 23.582031 -0.09375 20.472656 0.515625 16.796875 0.515625 C 13.585938 0.515625 10.507812 0.0351562 7.5625 -0.921875 C 4.613281 -1.890625 2.203125 -3.226562 0.328125 -4.9375 L 3.265625 -10 C 4.804688 -8.550781 6.773438 -7.382812 9.171875 -6.5 C 11.566406 -5.625 14.109375 -5.1875 16.796875 -5.1875 C 20.128906 -5.1875 22.722656 -5.890625 24.578125 -7.296875 C 26.441406 -8.710938 27.375 -10.660156 27.375 -13.140625 C 27.375 -15.617188 26.453125 -17.539062 24.609375 -18.90625 C 22.773438 -20.28125 20 -20.96875 16.28125 -20.96875 L 12.703125 -20.96875 L 12.703125 -25.453125 L 23.984375 -39.3125 L 2.375 -39.3125 L 2.375 -44.890625 L 32 -44.890625 L 32 -40.53125 Z M 20.265625 -26.03125 "/></g></g></g><g fill="#ffffff" fill-opacity="1"><g transform="translate(647.413269, 417.372276)"><g/></g></g><g fill="#ffffff" fill-opacity="1"><g transform="translate(664.659697, 417.372276)"><g><path d="M 25.65625 0.1875 C 21.457031 0.1875 17.640625 -0.8125 14.203125 -2.8125 C 10.765625 -4.820312 8.050781 -7.554688 6.0625 -11.015625 C 4.070312 -14.484375 3.078125 -18.289062 3.078125 -22.4375 C 3.078125 -26.582031 4.070312 -30.382812 6.0625 -33.84375 C 8.050781 -37.3125 10.773438 -40.050781 14.234375 -42.0625 C 17.703125 -44.070312 21.550781 -45.078125 25.78125 -45.078125 C 30.007812 -45.078125 33.84375 -44.09375 37.28125 -42.125 C 40.726562 -40.164062 43.429688 -37.460938 45.390625 -34.015625 C 47.359375 -30.578125 48.34375 -26.765625 48.34375 -22.578125 C 48.34375 -18.378906 47.335938 -14.535156 45.328125 -11.046875 C 43.328125 -7.566406 40.59375 -4.820312 37.125 -2.8125 C 33.664062 -0.8125 29.84375 0.1875 25.65625 0.1875 Z M 25.65625 -2.6875 C 29.332031 -2.6875 32.664062 -3.5625 35.65625 -5.3125 C 38.644531 -7.070312 41.003906 -9.46875 42.734375 -12.5 C 44.472656 -15.539062 45.34375 -18.898438 45.34375 -22.578125 C 45.34375 -26.253906 44.492188 -29.585938 42.796875 -32.578125 C 41.109375 -35.566406 38.78125 -37.914062 35.8125 -39.625 C 32.84375 -41.332031 29.5 -42.1875 25.78125 -42.1875 C 22.101562 -42.1875 18.753906 -41.3125 15.734375 -39.5625 C 12.722656 -37.8125 10.363281 -35.425781 8.65625 -32.40625 C 6.945312 -29.394531 6.09375 -26.070312 6.09375 -22.4375 C 6.09375 -18.8125 6.945312 -15.488281 8.65625 -12.46875 C 10.363281 -9.457031 12.710938 -7.070312 15.703125 -5.3125 C 18.703125 -3.5625 22.019531 -2.6875 25.65625 -2.6875 Z M 26.359375 -9.234375 C 23.742188 -9.234375 21.410156 -9.785156 19.359375 -10.890625 C 17.304688 -12.003906 15.703125 -13.566406 14.546875 -15.578125 C 13.398438 -17.585938 12.828125 -19.875 12.828125 -22.4375 C 12.828125 -25.007812 13.398438 -27.296875 14.546875 -29.296875 C 15.703125 -31.304688 17.304688 -32.867188 19.359375 -33.984375 C 21.410156 -35.097656 23.742188 -35.65625 26.359375 -35.65625 C 28.578125 -35.65625 30.601562 -35.179688 32.4375 -34.234375 C 34.28125 -33.296875 35.71875 -32.035156 36.75 -30.453125 L 33.09375 -27.828125 C 31.550781 -30.140625 29.285156 -31.296875 26.296875 -31.296875 C 23.816406 -31.296875 21.765625 -30.484375 20.140625 -28.859375 C 18.515625 -27.234375 17.703125 -25.09375 17.703125 -22.4375 C 17.703125 -19.789062 18.515625 -17.65625 20.140625 -16.03125 C 21.765625 -14.40625 23.816406 -13.59375 26.296875 -13.59375 C 29.285156 -13.59375 31.550781 -14.75 33.09375 -17.0625 L 36.75 -14.5 C 35.71875 -12.875 34.28125 -11.585938 32.4375 -10.640625 C 30.601562 -9.703125 28.578125 -9.234375 26.359375 -9.234375 Z M 26.359375 -9.234375 "/></g></g></g></svg>