<svg xmlns="http://www.w3.org/2000/svg" xmlns:xlink="http://www.w3.org/1999/xlink" zoomAndPan="magnify" preserveAspectRatio="xMidYMid meet" version="1.0" viewBox="162.08 260.16 406.41 273.91"><defs><g/><clipPath id="35311229be"><path d="M 233.710938 427.597656 L 504.460938 427.597656 L 504.460938 469.597656 L 233.710938 469.597656 Z M 233.710938 427.597656 " clip-rule="nonzero"/></clipPath></defs><g fill="#ffffff" fill-opacity="1"><g transform="translate(162.864163, 532.124994)"><g><path d="M 163.953125 -271.96875 L 163.953125 -83.921875 C 163.953125 -56.722656 156.441406 -35.613281 141.421875 -20.59375 C 126.398438 -5.570312 105.679688 1.9375 79.265625 1.9375 C 47.140625 1.9375 20.457031 -11.140625 -0.78125 -37.296875 L 20.984375 -72.265625 C 39.367188 -52.316406 58.664062 -42.34375 78.875 -42.34375 C 91.300781 -42.34375 100.878906 -46.035156 107.609375 -53.421875 C 114.347656 -60.804688 117.71875 -71.492188 117.71875 -85.484375 L 117.71875 -230.78125 L 23.703125 -230.78125 L 23.703125 -271.96875 Z M 163.953125 -271.96875 "/></g></g></g><g fill="#ffffff" fill-opacity="1"><g transform="translate(312.835798, 532.124994)"><g><path d="M 35.75 -271.96875 L 153.859375 -271.96875 C 182.085938 -271.96875 204.359375 -265.945312 220.671875 -253.90625 C 236.992188 -241.863281 245.15625 -225.222656 245.15625 -203.984375 C 245.15625 -188.703125 240.878906 -175.6875 232.328125 -164.9375 C 223.785156 -154.1875 212.132812 -147 197.375 -143.375 C 215.507812 -140.257812 229.753906 -132.613281 240.109375 -120.4375 C 250.472656 -108.269531 255.65625 -92.988281 255.65625 -74.59375 C 255.65625 -51.28125 246.847656 -33.019531 229.234375 -19.8125 C 211.617188 -6.601562 187.398438 0 156.578125 0 L 35.75 0 Z M 81.59375 -231.171875 L 81.59375 -159.296875 L 151.53125 -159.296875 C 166.03125 -159.296875 177.425781 -162.53125 185.71875 -169 C 194.007812 -175.476562 198.15625 -184.414062 198.15625 -195.8125 C 198.15625 -207.21875 194.070312 -215.960938 185.90625 -222.046875 C 177.75 -228.128906 166.289062 -231.171875 151.53125 -231.171875 Z M 81.59375 -118.890625 L 81.59375 -40.796875 L 151.53125 -40.796875 C 169.65625 -40.796875 183.703125 -44.226562 193.671875 -51.09375 C 203.648438 -57.957031 208.640625 -67.734375 208.640625 -80.421875 C 208.640625 -92.335938 203.585938 -101.726562 193.484375 -108.59375 C 183.378906 -115.457031 169.394531 -118.890625 151.53125 -118.890625 Z M 81.59375 -118.890625 "/></g></g></g><g clip-path="url(#35311229be)"><path stroke-linecap="butt" transform="matrix(0.749222, 0, 0, 0.751888, 233.709265, 427.599599)" fill="none" stroke-linejoin="miter" d="M 0.0022325 -0.00258404 L 361.377236 -0.00258404 L 361.377236 55.856794 L 0.0022325 55.856794 L 0.0022325 -0.00258404 " stroke="#000000" stroke-width="8" stroke-opacity="1" stroke-miterlimit="4"/></g><g fill="#000000" fill-opacity="1"><g transform="translate(246.008663, 461.534062)"><g><path d="M 6.953125 0.28125 C 5.453125 0.28125 4.0625 -0.03125 2.78125 -0.65625 C 1.5 -1.289062 0.460938 -2.175781 -0.328125 -3.3125 L 1.75 -5.734375 C 3.125 -3.765625 4.859375 -2.78125 6.953125 -2.78125 C 8.359375 -2.78125 9.421875 -3.207031 10.140625 -4.0625 C 10.867188 -4.914062 11.234375 -6.175781 11.234375 -7.84375 L 11.234375 -21.859375 L 2.203125 -21.859375 L 2.203125 -24.953125 L 14.765625 -24.953125 L 14.765625 -8.015625 C 14.765625 -5.265625 14.101562 -3.191406 12.78125 -1.796875 C 11.457031 -0.410156 9.515625 0.28125 6.953125 0.28125 Z M 6.953125 0.28125 "/></g></g></g><g fill="#000000" fill-opacity="1"><g transform="translate(264.296356, 461.534062)"><g><path d="M 20.53125 -12.9375 C 21.988281 -12.539062 23.128906 -11.8125 23.953125 -10.75 C 24.785156 -9.6875 25.203125 -8.347656 25.203125 -6.734375 C 25.203125 -4.578125 24.390625 -2.914062 22.765625 -1.75 C 21.140625 -0.582031 18.769531 0 15.65625 0 L 3.75 0 L 3.75 -24.953125 L 14.9375 -24.953125 C 17.789062 -24.953125 19.992188 -24.378906 21.546875 -23.234375 C 23.109375 -22.097656 23.890625 -20.519531 23.890625 -18.5 C 23.890625 -17.195312 23.585938 -16.066406 22.984375 -15.109375 C 22.378906 -14.160156 21.5625 -13.4375 20.53125 -12.9375 Z M 7.3125 -22.078125 L 7.3125 -14.078125 L 14.625 -14.078125 C 16.445312 -14.078125 17.851562 -14.414062 18.84375 -15.09375 C 19.832031 -15.769531 20.328125 -16.765625 20.328125 -18.078125 C 20.328125 -19.378906 19.832031 -20.367188 18.84375 -21.046875 C 17.851562 -21.734375 16.445312 -22.078125 14.625 -22.078125 Z M 15.515625 -2.890625 C 17.535156 -2.890625 19.054688 -3.222656 20.078125 -3.890625 C 21.097656 -4.554688 21.609375 -5.601562 21.609375 -7.03125 C 21.609375 -9.8125 19.578125 -11.203125 15.515625 -11.203125 L 7.3125 -11.203125 L 7.3125 -2.890625 Z M 15.515625 -2.890625 "/></g></g></g><g fill="#000000" fill-opacity="1"><g transform="translate(291.28229, 461.534062)"><g><path d="M 20.4375 0 L 15.046875 -7.671875 C 14.378906 -7.617188 13.859375 -7.59375 13.484375 -7.59375 L 7.3125 -7.59375 L 7.3125 0 L 3.75 0 L 3.75 -24.953125 L 13.484375 -24.953125 C 16.710938 -24.953125 19.253906 -24.179688 21.109375 -22.640625 C 22.960938 -21.097656 23.890625 -18.972656 23.890625 -16.265625 C 23.890625 -14.335938 23.410156 -12.695312 22.453125 -11.34375 C 21.503906 -9.988281 20.15625 -9 18.40625 -8.375 L 24.3125 0 Z M 13.375 -10.625 C 15.632812 -10.625 17.359375 -11.109375 18.546875 -12.078125 C 19.734375 -13.054688 20.328125 -14.453125 20.328125 -16.265625 C 20.328125 -18.066406 19.734375 -19.445312 18.546875 -20.40625 C 17.359375 -21.375 15.632812 -21.859375 13.375 -21.859375 L 7.3125 -21.859375 L 7.3125 -10.625 Z M 13.375 -10.625 "/></g></g></g><g fill="#000000" fill-opacity="1"><g transform="translate(317.198762, 461.534062)"><g><path d="M 3.75 -24.953125 L 7.3125 -24.953125 L 7.3125 0 L 3.75 0 Z M 3.75 -24.953125 "/></g></g></g><g fill="#000000" fill-opacity="1"><g transform="translate(328.249806, 461.534062)"><g><path d="M 21.03125 -12.625 L 24.453125 -12.625 L 24.453125 -2.890625 C 23.222656 -1.867188 21.785156 -1.082031 20.140625 -0.53125 C 18.503906 0.0078125 16.796875 0.28125 15.015625 0.28125 C 12.492188 0.28125 10.222656 -0.269531 8.203125 -1.375 C 6.179688 -2.476562 4.59375 -4 3.4375 -5.9375 C 2.289062 -7.875 1.71875 -10.054688 1.71875 -12.484375 C 1.71875 -14.898438 2.289062 -17.082031 3.4375 -19.03125 C 4.59375 -20.988281 6.1875 -22.515625 8.21875 -23.609375 C 10.25 -24.703125 12.535156 -25.25 15.078125 -25.25 C 17.078125 -25.25 18.890625 -24.921875 20.515625 -24.265625 C 22.148438 -23.609375 23.535156 -22.648438 24.671875 -21.390625 L 22.46875 -19.1875 C 20.46875 -21.113281 18.050781 -22.078125 15.21875 -22.078125 C 13.320312 -22.078125 11.617188 -21.664062 10.109375 -20.84375 C 8.597656 -20.019531 7.414062 -18.875 6.5625 -17.40625 C 5.707031 -15.945312 5.28125 -14.304688 5.28125 -12.484375 C 5.28125 -10.671875 5.707031 -9.035156 6.5625 -7.578125 C 7.414062 -6.117188 8.597656 -4.972656 10.109375 -4.140625 C 11.617188 -3.304688 13.3125 -2.890625 15.1875 -2.890625 C 17.425781 -2.890625 19.375 -3.425781 21.03125 -4.5 Z M 21.03125 -12.625 "/></g></g></g><g fill="#000000" fill-opacity="1"><g transform="translate(355.770465, 461.534062)"><g><path d="M 25.203125 -24.953125 L 25.203125 0 L 21.640625 0 L 21.640625 -11.125 L 7.3125 -11.125 L 7.3125 0 L 3.75 0 L 3.75 -24.953125 L 7.3125 -24.953125 L 7.3125 -14.234375 L 21.640625 -14.234375 L 21.640625 -24.953125 Z M 25.203125 -24.953125 "/></g></g></g><g fill="#000000" fill-opacity="1"><g transform="translate(384.717069, 461.534062)"><g><path d="M 8.703125 -21.859375 L 0.140625 -21.859375 L 0.140625 -24.953125 L 20.78125 -24.953125 L 20.78125 -21.859375 L 12.234375 -21.859375 L 12.234375 0 L 8.703125 0 Z M 8.703125 -21.859375 "/></g></g></g><g fill="#000000" fill-opacity="1"><g transform="translate(405.64275, 461.534062)"><g><path d="M 4.0625 0.21875 C 3.394531 0.21875 2.820312 -0.0078125 2.34375 -0.46875 C 1.875 -0.9375 1.640625 -1.53125 1.640625 -2.25 C 1.640625 -2.9375 1.875 -3.507812 2.34375 -3.96875 C 2.820312 -4.4375 3.394531 -4.671875 4.0625 -4.671875 C 4.726562 -4.671875 5.285156 -4.441406 5.734375 -3.984375 C 6.191406 -3.535156 6.421875 -2.957031 6.421875 -2.25 C 6.421875 -1.53125 6.1875 -0.9375 5.71875 -0.46875 C 5.257812 -0.0078125 4.707031 0.21875 4.0625 0.21875 Z M 4.0625 0.21875 "/></g></g></g><g fill="#000000" fill-opacity="1"><g transform="translate(413.73497, 461.534062)"><g><path d="M 3.75 -24.953125 L 14.265625 -24.953125 C 16.898438 -24.953125 19.238281 -24.429688 21.28125 -23.390625 C 23.332031 -22.347656 24.921875 -20.878906 26.046875 -18.984375 C 27.171875 -17.097656 27.734375 -14.929688 27.734375 -12.484375 C 27.734375 -10.035156 27.171875 -7.863281 26.046875 -5.96875 C 24.921875 -4.082031 23.332031 -2.613281 21.28125 -1.5625 C 19.238281 -0.519531 16.898438 0 14.265625 0 L 3.75 0 Z M 14.046875 -3.109375 C 16.066406 -3.109375 17.84375 -3.5 19.375 -4.28125 C 20.90625 -5.0625 22.085938 -6.160156 22.921875 -7.578125 C 23.753906 -8.992188 24.171875 -10.628906 24.171875 -12.484375 C 24.171875 -14.335938 23.753906 -15.96875 22.921875 -17.375 C 22.085938 -18.789062 20.90625 -19.890625 19.375 -20.671875 C 17.84375 -21.460938 16.066406 -21.859375 14.046875 -21.859375 L 7.3125 -21.859375 L 7.3125 -3.109375 Z M 14.046875 -3.109375 "/></g></g></g><g fill="#000000" fill-opacity="1"><g transform="translate(443.180651, 461.534062)"><g><path d="M 21.859375 -3.109375 L 21.859375 0 L 3.75 0 L 3.75 -24.953125 L 21.359375 -24.953125 L 21.359375 -21.859375 L 7.3125 -21.859375 L 7.3125 -14.1875 L 19.828125 -14.1875 L 19.828125 -11.15625 L 7.3125 -11.15625 L 7.3125 -3.109375 Z M 21.859375 -3.109375 "/></g></g></g><g fill="#000000" fill-opacity="1"><g transform="translate(467.065156, 461.534062)"><g><path d="M 25.421875 -24.953125 L 14.46875 0 L 10.953125 0 L -0.03125 -24.953125 L 3.8125 -24.953125 L 12.796875 -4.453125 L 21.859375 -24.953125 Z M 25.421875 -24.953125 "/></g></g></g></svg>