<svg xmlns="http://www.w3.org/2000/svg" xmlns:xlink="http://www.w3.org/1999/xlink" width="1366" zoomAndPan="magnify" viewBox="0 0 1024.5 777.749977" height="1037" preserveAspectRatio="xMidYMid meet" version="1.0"><defs><g/><clipPath id="d2ce9184ff"><path d="M 37.625 21.183594 L 996.40625 21.183594 L 996.40625 520.441406 L 37.625 520.441406 Z M 37.625 21.183594 " clip-rule="nonzero"/></clipPath><clipPath id="2870a3e970"><path d="M 167 93 L 784 93 L 784 339 L 167 339 Z M 167 93 " clip-rule="nonzero"/></clipPath><clipPath id="81aaf742c6"><path d="M 783.425781 205.757812 C 782.226562 204.5625 781.027344 203.363281 779.828125 201.863281 C 712.410156 134.746094 619.523438 93.097656 517.046875 93.097656 C 414.574219 93.097656 321.6875 134.746094 254.566406 201.863281 C 216.515625 240.21875 186.550781 286.660156 167.671875 338.5 C 169.472656 336.699219 170.96875 335.203125 172.765625 333.40625 C 239.886719 266.285156 332.773438 224.636719 435.246094 224.636719 C 520.34375 224.636719 591.359375 247.707031 653.980469 295.949219 Z M 783.425781 205.757812 " clip-rule="nonzero"/></clipPath><linearGradient x1="2524.889186" gradientTransform="matrix(0.299636, 0, 0, 0.299636, 37.631513, 21.184077)" y1="793.646939" x2="398.025056" gradientUnits="userSpaceOnUse" y2="505.987417" id="a230bd20da"><stop stop-opacity="1" stop-color="rgb(9.408569%, 0%, 67.83905%)" offset="0"/><stop stop-opacity="1" stop-color="rgb(9.408569%, 0%, 67.83905%)" offset="0.0511459"/><stop stop-opacity="1" stop-color="rgb(9.408569%, 0%, 67.83905%)" offset="0.125"/><stop stop-opacity="1" stop-color="rgb(9.408569%, 0%, 67.83905%)" offset="0.1875"/><stop stop-opacity="1" stop-color="rgb(9.408569%, 0%, 67.83905%)" offset="0.21875"/><stop stop-opacity="1" stop-color="rgb(9.408569%, 0%, 67.83905%)" offset="0.234375"/><stop stop-opacity="1" stop-color="rgb(9.414673%, 0.0244141%, 67.71698%)" offset="0.242188"/><stop stop-opacity="1" stop-color="rgb(9.44519%, 0.138855%, 67.175293%)" offset="0.246094"/><stop stop-opacity="1" stop-color="rgb(9.469604%, 0.227356%, 66.75415%)" offset="0.25"/><stop stop-opacity="1" stop-color="rgb(9.492493%, 0.314331%, 66.333008%)" offset="0.253906"/><stop stop-opacity="1" stop-color="rgb(9.516907%, 0.402832%, 65.911865%)" offset="0.257812"/><stop stop-opacity="1" stop-color="rgb(9.539795%, 0.491333%, 65.489197%)" offset="0.261719"/><stop stop-opacity="1" stop-color="rgb(9.564209%, 0.579834%, 65.068054%)" offset="0.265625"/><stop stop-opacity="1" stop-color="rgb(9.587097%, 0.668335%, 64.646912%)" offset="0.269531"/><stop stop-opacity="1" stop-color="rgb(9.611511%, 0.756836%, 64.225769%)" offset="0.273438"/><stop stop-opacity="1" stop-color="rgb(9.634399%, 0.845337%, 63.804626%)" offset="0.277344"/><stop stop-opacity="1" stop-color="rgb(9.658813%, 0.933838%, 63.383484%)" offset="0.28125"/><stop stop-opacity="1" stop-color="rgb(9.681702%, 1.022339%, 62.962341%)" offset="0.285156"/><stop stop-opacity="1" stop-color="rgb(9.706116%, 1.11084%, 62.541199%)" offset="0.289063"/><stop stop-opacity="1" stop-color="rgb(9.729004%, 1.197815%, 62.11853%)" offset="0.292969"/><stop stop-opacity="1" stop-color="rgb(9.753418%, 1.286316%, 61.697388%)" offset="0.296875"/><stop stop-opacity="1" stop-color="rgb(9.776306%, 1.374817%, 61.276245%)" offset="0.300781"/><stop stop-opacity="1" stop-color="rgb(9.80072%, 1.463318%, 60.855103%)" offset="0.304688"/><stop stop-opacity="1" stop-color="rgb(9.823608%, 1.551819%, 60.43396%)" offset="0.308594"/><stop stop-opacity="1" stop-color="rgb(9.848022%, 1.64032%, 60.012817%)" offset="0.3125"/><stop stop-opacity="1" stop-color="rgb(9.870911%, 1.728821%, 59.591675%)" offset="0.316406"/><stop stop-opacity="1" stop-color="rgb(9.895325%, 1.817322%, 59.170532%)" offset="0.320312"/><stop stop-opacity="1" stop-color="rgb(9.918213%, 1.905823%, 58.747864%)" offset="0.324219"/><stop stop-opacity="1" stop-color="rgb(9.941101%, 1.994324%, 58.326721%)" offset="0.328125"/><stop stop-opacity="1" stop-color="rgb(9.963989%, 2.082825%, 57.905579%)" offset="0.332031"/><stop stop-opacity="1" stop-color="rgb(9.988403%, 2.171326%, 57.484436%)" offset="0.335938"/><stop stop-opacity="1" stop-color="rgb(10.011292%, 2.258301%, 57.063293%)" offset="0.339844"/><stop stop-opacity="1" stop-color="rgb(10.035706%, 2.346802%, 56.642151%)" offset="0.34375"/><stop stop-opacity="1" stop-color="rgb(10.058594%, 2.435303%, 56.221008%)" offset="0.347656"/><stop stop-opacity="1" stop-color="rgb(10.083008%, 2.523804%, 55.799866%)" offset="0.351563"/><stop stop-opacity="1" stop-color="rgb(10.105896%, 2.612305%, 55.377197%)" offset="0.355469"/><stop stop-opacity="1" stop-color="rgb(10.13031%, 2.700806%, 54.956055%)" offset="0.359375"/><stop stop-opacity="1" stop-color="rgb(10.153198%, 2.789307%, 54.534912%)" offset="0.363281"/><stop stop-opacity="1" stop-color="rgb(10.177612%, 2.877808%, 54.11377%)" offset="0.367188"/><stop stop-opacity="1" stop-color="rgb(10.2005%, 2.966309%, 53.692627%)" offset="0.371094"/><stop stop-opacity="1" stop-color="rgb(10.224915%, 3.05481%, 53.271484%)" offset="0.375"/><stop stop-opacity="1" stop-color="rgb(10.247803%, 3.141785%, 52.850342%)" offset="0.378906"/><stop stop-opacity="1" stop-color="rgb(10.272217%, 3.230286%, 52.429199%)" offset="0.382813"/><stop stop-opacity="1" stop-color="rgb(10.295105%, 3.318787%, 52.006531%)" offset="0.386719"/><stop stop-opacity="1" stop-color="rgb(10.319519%, 3.407288%, 51.585388%)" offset="0.390625"/><stop stop-opacity="1" stop-color="rgb(10.342407%, 3.495789%, 51.164246%)" offset="0.394531"/><stop stop-opacity="1" stop-color="rgb(10.366821%, 3.58429%, 50.743103%)" offset="0.398438"/><stop stop-opacity="1" stop-color="rgb(10.389709%, 3.672791%, 50.32196%)" offset="0.402344"/><stop stop-opacity="1" stop-color="rgb(10.414124%, 3.761292%, 49.900818%)" offset="0.40625"/><stop stop-opacity="1" stop-color="rgb(10.437012%, 3.849792%, 49.479675%)" offset="0.410156"/><stop stop-opacity="1" stop-color="rgb(10.461426%, 3.938293%, 49.058533%)" offset="0.414062"/><stop stop-opacity="1" stop-color="rgb(10.484314%, 4.025269%, 48.635864%)" offset="0.417969"/><stop stop-opacity="1" stop-color="rgb(10.508728%, 4.11377%, 48.214722%)" offset="0.421875"/><stop stop-opacity="1" stop-color="rgb(10.531616%, 4.202271%, 47.793579%)" offset="0.425781"/><stop stop-opacity="1" stop-color="rgb(10.554504%, 4.290771%, 47.372437%)" offset="0.429688"/><stop stop-opacity="1" stop-color="rgb(10.577393%, 4.379272%, 46.951294%)" offset="0.433594"/><stop stop-opacity="1" stop-color="rgb(10.601807%, 4.467773%, 46.530151%)" offset="0.4375"/><stop stop-opacity="1" stop-color="rgb(10.624695%, 4.556274%, 46.109009%)" offset="0.441406"/><stop stop-opacity="1" stop-color="rgb(10.649109%, 4.644775%, 45.687866%)" offset="0.445312"/><stop stop-opacity="1" stop-color="rgb(10.671997%, 4.733276%, 45.265198%)" offset="0.449219"/><stop stop-opacity="1" stop-color="rgb(10.696411%, 4.821777%, 44.844055%)" offset="0.453125"/><stop stop-opacity="1" stop-color="rgb(10.719299%, 4.908752%, 44.422913%)" offset="0.457031"/><stop stop-opacity="1" stop-color="rgb(10.743713%, 4.997253%, 44.00177%)" offset="0.460938"/><stop stop-opacity="1" stop-color="rgb(10.766602%, 5.085754%, 43.580627%)" offset="0.464844"/><stop stop-opacity="1" stop-color="rgb(10.791016%, 5.174255%, 43.159485%)" offset="0.46875"/><stop stop-opacity="1" stop-color="rgb(10.813904%, 5.262756%, 42.738342%)" offset="0.472656"/><stop stop-opacity="1" stop-color="rgb(10.838318%, 5.351257%, 42.3172%)" offset="0.476562"/><stop stop-opacity="1" stop-color="rgb(10.861206%, 5.439758%, 41.894531%)" offset="0.480469"/><stop stop-opacity="1" stop-color="rgb(10.88562%, 5.528259%, 41.473389%)" offset="0.484375"/><stop stop-opacity="1" stop-color="rgb(10.908508%, 5.61676%, 41.052246%)" offset="0.488281"/><stop stop-opacity="1" stop-color="rgb(10.932922%, 5.705261%, 40.631104%)" offset="0.492188"/><stop stop-opacity="1" stop-color="rgb(10.955811%, 5.792236%, 40.209961%)" offset="0.496094"/><stop stop-opacity="1" stop-color="rgb(10.980225%, 5.880737%, 39.788818%)" offset="0.5"/><stop stop-opacity="1" stop-color="rgb(11.003113%, 5.969238%, 39.367676%)" offset="0.503906"/><stop stop-opacity="1" stop-color="rgb(11.027527%, 6.057739%, 38.946533%)" offset="0.507812"/><stop stop-opacity="1" stop-color="rgb(11.050415%, 6.14624%, 38.523865%)" offset="0.511719"/><stop stop-opacity="1" stop-color="rgb(11.074829%, 6.234741%, 38.102722%)" offset="0.515625"/><stop stop-opacity="1" stop-color="rgb(11.097717%, 6.323242%, 37.68158%)" offset="0.519531"/><stop stop-opacity="1" stop-color="rgb(11.122131%, 6.411743%, 37.260437%)" offset="0.523438"/><stop stop-opacity="1" stop-color="rgb(11.14502%, 6.500244%, 36.839294%)" offset="0.527344"/><stop stop-opacity="1" stop-color="rgb(11.167908%, 6.588745%, 36.418152%)" offset="0.53125"/><stop stop-opacity="1" stop-color="rgb(11.190796%, 6.677246%, 35.997009%)" offset="0.535156"/><stop stop-opacity="1" stop-color="rgb(11.21521%, 6.765747%, 35.575867%)" offset="0.539063"/><stop stop-opacity="1" stop-color="rgb(11.238098%, 6.852722%, 35.153198%)" offset="0.542969"/><stop stop-opacity="1" stop-color="rgb(11.262512%, 6.941223%, 34.732056%)" offset="0.546875"/><stop stop-opacity="1" stop-color="rgb(11.2854%, 7.029724%, 34.310913%)" offset="0.550781"/><stop stop-opacity="1" stop-color="rgb(11.309814%, 7.118225%, 33.889771%)" offset="0.554688"/><stop stop-opacity="1" stop-color="rgb(11.332703%, 7.206726%, 33.468628%)" offset="0.558594"/><stop stop-opacity="1" stop-color="rgb(11.357117%, 7.295227%, 33.047485%)" offset="0.5625"/><stop stop-opacity="1" stop-color="rgb(11.380005%, 7.383728%, 32.626343%)" offset="0.566406"/><stop stop-opacity="1" stop-color="rgb(11.404419%, 7.472229%, 32.2052%)" offset="0.570312"/><stop stop-opacity="1" stop-color="rgb(11.427307%, 7.56073%, 31.782532%)" offset="0.574219"/><stop stop-opacity="1" stop-color="rgb(11.451721%, 7.649231%, 31.361389%)" offset="0.578125"/><stop stop-opacity="1" stop-color="rgb(11.474609%, 7.736206%, 30.940247%)" offset="0.582031"/><stop stop-opacity="1" stop-color="rgb(11.499023%, 7.824707%, 30.519104%)" offset="0.585938"/><stop stop-opacity="1" stop-color="rgb(11.521912%, 7.913208%, 30.097961%)" offset="0.589844"/><stop stop-opacity="1" stop-color="rgb(11.546326%, 8.001709%, 29.676819%)" offset="0.59375"/><stop stop-opacity="1" stop-color="rgb(11.569214%, 8.09021%, 29.255676%)" offset="0.597656"/><stop stop-opacity="1" stop-color="rgb(11.593628%, 8.178711%, 28.834534%)" offset="0.601562"/><stop stop-opacity="1" stop-color="rgb(11.616516%, 8.267212%, 28.411865%)" offset="0.605469"/><stop stop-opacity="1" stop-color="rgb(11.64093%, 8.355713%, 27.990723%)" offset="0.609375"/><stop stop-opacity="1" stop-color="rgb(11.663818%, 8.444214%, 27.56958%)" offset="0.613281"/><stop stop-opacity="1" stop-color="rgb(11.688232%, 8.532715%, 27.148438%)" offset="0.617188"/><stop stop-opacity="1" stop-color="rgb(11.711121%, 8.61969%, 26.727295%)" offset="0.621094"/><stop stop-opacity="1" stop-color="rgb(11.734009%, 8.708191%, 26.306152%)" offset="0.625"/><stop stop-opacity="1" stop-color="rgb(11.756897%, 8.796692%, 25.88501%)" offset="0.628906"/><stop stop-opacity="1" stop-color="rgb(11.781311%, 8.885193%, 25.463867%)" offset="0.632812"/><stop stop-opacity="1" stop-color="rgb(11.804199%, 8.973694%, 25.041199%)" offset="0.636719"/><stop stop-opacity="1" stop-color="rgb(11.828613%, 9.062195%, 24.620056%)" offset="0.640625"/><stop stop-opacity="1" stop-color="rgb(11.851501%, 9.150696%, 24.198914%)" offset="0.644531"/><stop stop-opacity="1" stop-color="rgb(11.875916%, 9.239197%, 23.777771%)" offset="0.648437"/><stop stop-opacity="1" stop-color="rgb(11.898804%, 9.327698%, 23.356628%)" offset="0.652344"/><stop stop-opacity="1" stop-color="rgb(11.923218%, 9.416199%, 22.935486%)" offset="0.65625"/><stop stop-opacity="1" stop-color="rgb(11.946106%, 9.503174%, 22.514343%)" offset="0.660156"/><stop stop-opacity="1" stop-color="rgb(11.97052%, 9.591675%, 22.093201%)" offset="0.664062"/><stop stop-opacity="1" stop-color="rgb(11.993408%, 9.680176%, 21.670532%)" offset="0.667969"/><stop stop-opacity="1" stop-color="rgb(12.017822%, 9.768677%, 21.24939%)" offset="0.671875"/><stop stop-opacity="1" stop-color="rgb(12.04071%, 9.857178%, 20.828247%)" offset="0.675781"/><stop stop-opacity="1" stop-color="rgb(12.065125%, 9.945679%, 20.407104%)" offset="0.679688"/><stop stop-opacity="1" stop-color="rgb(12.088013%, 10.03418%, 19.985962%)" offset="0.683594"/><stop stop-opacity="1" stop-color="rgb(12.112427%, 10.122681%, 19.564819%)" offset="0.6875"/><stop stop-opacity="1" stop-color="rgb(12.135315%, 10.211182%, 19.143677%)" offset="0.691406"/><stop stop-opacity="1" stop-color="rgb(12.159729%, 10.299683%, 18.722534%)" offset="0.695312"/><stop stop-opacity="1" stop-color="rgb(12.182617%, 10.386658%, 18.299866%)" offset="0.699219"/><stop stop-opacity="1" stop-color="rgb(12.207031%, 10.475159%, 17.878723%)" offset="0.703125"/><stop stop-opacity="1" stop-color="rgb(12.229919%, 10.56366%, 17.457581%)" offset="0.707031"/><stop stop-opacity="1" stop-color="rgb(12.254333%, 10.652161%, 17.036438%)" offset="0.710938"/><stop stop-opacity="1" stop-color="rgb(12.277222%, 10.740662%, 16.615295%)" offset="0.714844"/><stop stop-opacity="1" stop-color="rgb(12.301636%, 10.829163%, 16.194153%)" offset="0.71875"/><stop stop-opacity="1" stop-color="rgb(12.324524%, 10.917664%, 15.77301%)" offset="0.722656"/><stop stop-opacity="1" stop-color="rgb(12.347412%, 11.006165%, 15.351868%)" offset="0.726563"/><stop stop-opacity="1" stop-color="rgb(12.3703%, 11.094666%, 14.929199%)" offset="0.730469"/><stop stop-opacity="1" stop-color="rgb(12.394714%, 11.183167%, 14.508057%)" offset="0.734375"/><stop stop-opacity="1" stop-color="rgb(12.417603%, 11.271667%, 14.086914%)" offset="0.738281"/><stop stop-opacity="1" stop-color="rgb(12.442017%, 11.360168%, 13.665771%)" offset="0.742188"/><stop stop-opacity="1" stop-color="rgb(12.464905%, 11.447144%, 13.244629%)" offset="0.746094"/><stop stop-opacity="1" stop-color="rgb(12.489319%, 11.535645%, 12.823486%)" offset="0.75"/><stop stop-opacity="1" stop-color="rgb(12.512207%, 11.624146%, 12.402344%)" offset="0.753906"/><stop stop-opacity="1" stop-color="rgb(12.536621%, 11.712646%, 11.981201%)" offset="0.757812"/><stop stop-opacity="1" stop-color="rgb(12.542725%, 11.735535%, 11.869812%)" offset="0.765625"/><stop stop-opacity="1" stop-color="rgb(12.548828%, 11.759949%, 11.759949%)" offset="0.78125"/><stop stop-opacity="1" stop-color="rgb(12.548828%, 11.759949%, 11.759949%)" offset="0.8125"/><stop stop-opacity="1" stop-color="rgb(12.548828%, 11.759949%, 11.759949%)" offset="0.875"/><stop stop-opacity="1" stop-color="rgb(12.548828%, 11.759949%, 11.759949%)" offset="0.948854"/><stop stop-opacity="1" stop-color="rgb(12.548828%, 11.759949%, 11.759949%)" offset="1"/></linearGradient><clipPath id="557c1d3047"><rect x="0" width="954" y="0" height="172"/></clipPath><clipPath id="8697bcd26d"><path d="M 255 16 L 284 16 L 284 57.980469 L 255 57.980469 Z M 255 16 " clip-rule="nonzero"/></clipPath><clipPath id="e9aabbc9cd"><path d="M 462 16 L 487 16 L 487 57.980469 L 462 57.980469 Z M 462 16 " clip-rule="nonzero"/></clipPath><clipPath id="d9f6f99b06"><path d="M 588 4 L 603 4 L 603 57.980469 L 588 57.980469 Z M 588 4 " clip-rule="nonzero"/></clipPath><clipPath id="1d05307578"><rect x="0" width="682" y="0" height="58"/></clipPath></defs><g clip-path="url(#d2ce9184ff)"><path fill="#201e1e" d="M 517.046875 520.078125 L 57.109375 520.078125 C 46.320312 520.078125 37.632812 511.386719 37.632812 500.601562 C 37.632812 368.160156 91.265625 248.308594 178.160156 161.714844 C 264.753906 74.820312 384.609375 21.183594 517.046875 21.183594 C 649.488281 21.183594 769.339844 74.820312 856.234375 161.714844 C 942.832031 248.308594 996.765625 368.160156 996.765625 500.601562 C 996.765625 511.386719 988.074219 520.078125 977.289062 520.078125 Z M 76.882812 481.125 L 957.214844 481.125 C 952.417969 367.261719 904.175781 264.488281 828.667969 189.28125 C 748.964844 109.578125 638.699219 60.136719 517.046875 60.136719 C 395.394531 60.136719 285.429688 109.578125 205.726562 189.28125 C 130.21875 264.488281 81.976562 367.261719 76.882812 481.125 Z M 76.882812 481.125 " fill-opacity="1" fill-rule="nonzero"/></g><g clip-path="url(#2870a3e970)"><g clip-path="url(#81aaf742c6)"><path fill="url(#a230bd20da)" d="M 167.671875 93.097656 L 167.671875 338.5 L 783.425781 338.5 L 783.425781 93.097656 Z M 167.671875 93.097656 " fill-rule="nonzero"/></g></g><path fill="#201e1e" d="M 542.816406 426.589844 C 547.3125 440.375 543.117188 456.554688 531.132812 466.144531 C 515.25 479.027344 492.179688 476.628906 479.59375 460.75 C 466.710938 444.867188 469.105469 421.796875 484.988281 409.210938 C 497.570312 399.023438 514.652344 398.726562 527.535156 406.515625 L 798.707031 208.457031 Z M 542.816406 426.589844 " fill-opacity="1" fill-rule="evenodd"/><g transform="matrix(1, 0, 0, 1, 64, 518)"><g clip-path="url(#557c1d3047)"><g fill="#000000" fill-opacity="1"><g transform="translate(3.00195, 133.443284)"><g><path d="M 102.8125 -97.78125 L 102.8125 0 L 75.15625 0 L 75.15625 -38.140625 L 37.4375 -38.140625 L 37.4375 0 L 9.78125 0 L 9.78125 -97.78125 L 37.4375 -97.78125 L 37.4375 -61.046875 L 75.15625 -61.046875 L 75.15625 -97.78125 Z M 102.8125 -97.78125 "/></g></g></g><g fill="#000000" fill-opacity="1"><g transform="translate(136.529849, 133.443284)"><g><path d="M 54.890625 1.953125 C 40.367188 1.953125 29.078125 -2.003906 21.015625 -9.921875 C 12.960938 -17.835938 8.9375 -29.054688 8.9375 -43.578125 L 8.9375 -97.78125 L 36.59375 -97.78125 L 36.59375 -44.421875 C 36.59375 -28.773438 42.785156 -20.953125 55.171875 -20.953125 C 67.460938 -20.953125 73.609375 -28.773438 73.609375 -44.421875 L 73.609375 -97.78125 L 100.859375 -97.78125 L 100.859375 -43.578125 C 100.859375 -29.054688 96.828125 -17.835938 88.765625 -9.921875 C 80.710938 -2.003906 69.421875 1.953125 54.890625 1.953125 Z M 54.890625 1.953125 "/></g></g></g><g fill="#000000" fill-opacity="1"><g transform="translate(267.264455, 133.443284)"><g><path d="M 102.8125 -97.78125 L 102.8125 0 L 80.046875 0 L 36.875 -52.109375 L 36.875 0 L 9.78125 0 L 9.78125 -97.78125 L 32.546875 -97.78125 L 75.703125 -45.671875 L 75.703125 -97.78125 Z M 102.8125 -97.78125 "/></g></g></g><g fill="#000000" fill-opacity="1"><g transform="translate(400.792353, 133.443284)"><g><path d="M 9.78125 -97.78125 L 56.015625 -97.78125 C 66.722656 -97.78125 76.21875 -95.773438 84.5 -91.765625 C 92.789062 -87.765625 99.21875 -82.085938 103.78125 -74.734375 C 108.34375 -67.378906 110.625 -58.765625 110.625 -48.890625 C 110.625 -39.015625 108.34375 -30.398438 103.78125 -23.046875 C 99.21875 -15.691406 92.789062 -10.007812 84.5 -6 C 76.21875 -2 66.722656 0 56.015625 0 L 9.78125 0 Z M 54.890625 -22.078125 C 63.273438 -22.078125 70.003906 -24.445312 75.078125 -29.1875 C 80.148438 -33.9375 82.6875 -40.503906 82.6875 -48.890625 C 82.6875 -57.273438 80.148438 -63.835938 75.078125 -68.578125 C 70.003906 -73.328125 63.273438 -75.703125 54.890625 -75.703125 L 37.4375 -75.703125 L 37.4375 -22.078125 Z M 54.890625 -22.078125 "/></g></g></g><g fill="#000000" fill-opacity="1"><g transform="translate(537.113548, 133.443284)"><g><path d="M 59.09375 1.953125 C 48.75 1.953125 39.457031 -0.234375 31.21875 -4.609375 C 22.976562 -8.984375 16.503906 -15.035156 11.796875 -22.765625 C 7.097656 -30.492188 4.75 -39.203125 4.75 -48.890625 C 4.75 -58.578125 7.097656 -67.285156 11.796875 -75.015625 C 16.503906 -82.742188 22.976562 -88.796875 31.21875 -93.171875 C 39.457031 -97.546875 48.75 -99.734375 59.09375 -99.734375 C 69.425781 -99.734375 78.710938 -97.546875 86.953125 -93.171875 C 95.191406 -88.796875 101.660156 -82.742188 106.359375 -75.015625 C 111.066406 -67.285156 113.421875 -58.578125 113.421875 -48.890625 C 113.421875 -39.203125 111.066406 -30.492188 106.359375 -22.765625 C 101.660156 -15.035156 95.191406 -8.984375 86.953125 -4.609375 C 78.710938 -0.234375 69.425781 1.953125 59.09375 1.953125 Z M 59.09375 -20.953125 C 64.019531 -20.953125 68.484375 -22.113281 72.484375 -24.4375 C 76.492188 -26.769531 79.660156 -30.054688 81.984375 -34.296875 C 84.316406 -38.535156 85.484375 -43.398438 85.484375 -48.890625 C 85.484375 -54.378906 84.316406 -59.242188 81.984375 -63.484375 C 79.660156 -67.722656 76.492188 -71.003906 72.484375 -73.328125 C 68.484375 -75.660156 64.019531 -76.828125 59.09375 -76.828125 C 54.15625 -76.828125 49.679688 -75.660156 45.671875 -73.328125 C 41.671875 -71.003906 38.503906 -67.722656 36.171875 -63.484375 C 33.847656 -59.242188 32.6875 -54.378906 32.6875 -48.890625 C 32.6875 -43.398438 33.847656 -38.535156 36.171875 -34.296875 C 38.503906 -30.054688 41.671875 -26.769531 45.671875 -24.4375 C 49.679688 -22.113281 54.15625 -20.953125 59.09375 -20.953125 Z M 59.09375 -20.953125 "/></g></g></g><g fill="#000000" fill-opacity="1"><g transform="translate(673.434213, 133.443284)"><g><path d="M 19.703125 1.25 C 15.222656 1.25 11.445312 -0.238281 8.375 -3.21875 C 5.300781 -6.195312 3.765625 -9.96875 3.765625 -14.53125 C 3.765625 -19.1875 5.273438 -22.957031 8.296875 -25.84375 C 11.328125 -28.726562 15.128906 -30.171875 19.703125 -30.171875 C 24.359375 -30.171875 28.175781 -28.726562 31.15625 -25.84375 C 34.132812 -22.957031 35.625 -19.1875 35.625 -14.53125 C 35.625 -9.96875 34.109375 -6.195312 31.078125 -3.21875 C 28.054688 -0.238281 24.265625 1.25 19.703125 1.25 Z M 19.703125 1.25 "/></g></g></g><g fill="#000000" fill-opacity="1"><g transform="translate(741.181372, 133.443284)"><g><path d="M 31.15625 1.953125 C 23.976562 1.953125 17.457031 0.71875 11.59375 -1.75 C 5.726562 -4.21875 0.929688 -7.78125 -2.796875 -12.4375 L 12.296875 -30.3125 C 17.503906 -23.507812 23.132812 -20.109375 29.1875 -20.109375 C 33.195312 -20.109375 36.25 -21.316406 38.34375 -23.734375 C 40.4375 -26.160156 41.484375 -29.703125 41.484375 -34.359375 L 41.484375 -76.40625 L 7.6875 -76.40625 L 7.6875 -97.78125 L 68.859375 -97.78125 L 68.859375 -36.046875 C 68.859375 -23.378906 65.671875 -13.878906 59.296875 -7.546875 C 52.921875 -1.210938 43.539062 1.953125 31.15625 1.953125 Z M 31.15625 1.953125 "/></g></g></g><g fill="#000000" fill-opacity="1"><g transform="translate(839.932714, 133.443284)"><g><path d="M 44.140625 1.953125 C 36.222656 1.953125 28.539062 0.976562 21.09375 -0.96875 C 13.644531 -2.925781 7.59375 -5.535156 2.9375 -8.796875 L 12.015625 -29.1875 C 16.390625 -26.300781 21.460938 -23.972656 27.234375 -22.203125 C 33.015625 -20.441406 38.695312 -19.5625 44.28125 -19.5625 C 54.894531 -19.5625 60.203125 -22.210938 60.203125 -27.515625 C 60.203125 -30.304688 58.6875 -32.378906 55.65625 -33.734375 C 52.632812 -35.085938 47.769531 -36.507812 41.0625 -38 C 33.707031 -39.582031 27.5625 -41.28125 22.625 -43.09375 C 17.6875 -44.90625 13.445312 -47.8125 9.90625 -51.8125 C 6.375 -55.820312 4.609375 -61.226562 4.609375 -68.03125 C 4.609375 -73.988281 6.238281 -79.363281 9.5 -84.15625 C 12.757812 -88.957031 17.625 -92.753906 24.09375 -95.546875 C 30.5625 -98.335938 38.5 -99.734375 47.90625 -99.734375 C 54.332031 -99.734375 60.664062 -99.007812 66.90625 -97.5625 C 73.144531 -96.125 78.640625 -94.007812 83.390625 -91.21875 L 74.875 -70.6875 C 65.5625 -75.707031 56.523438 -78.21875 47.765625 -78.21875 C 42.273438 -78.21875 38.269531 -77.40625 35.75 -75.78125 C 33.238281 -74.15625 31.984375 -72.035156 31.984375 -69.421875 C 31.984375 -66.816406 33.472656 -64.863281 36.453125 -63.5625 C 39.429688 -62.257812 44.226562 -60.90625 50.84375 -59.5 C 58.289062 -57.914062 64.457031 -56.21875 69.34375 -54.40625 C 74.238281 -52.59375 78.476562 -49.707031 82.0625 -45.75 C 85.644531 -41.789062 87.4375 -36.410156 87.4375 -29.609375 C 87.4375 -23.742188 85.804688 -18.4375 82.546875 -13.6875 C 79.296875 -8.9375 74.410156 -5.140625 67.890625 -2.296875 C 61.367188 0.535156 53.453125 1.953125 44.140625 1.953125 Z M 44.140625 1.953125 "/></g></g></g></g></g><g transform="matrix(1, 0, 0, 1, 191, 691)"><g clip-path="url(#1d05307578)"><g fill="#000000" fill-opacity="1"><g transform="translate(0.775031, 43.117012)"><g><path d="M 18.484375 -38.984375 L 23.328125 -39.921875 L 35.859375 -4.171875 L 40.65625 -2.34375 L 40.203125 0 L 25.0625 0 L 24.671875 -2.34375 L 29.453125 -4.171875 L 26.34375 -13.140625 L 11.75 -13.140625 L 8.578125 -4.171875 L 14.3125 -2.34375 L 13.921875 0 L 1.21875 0 L 0.828125 -2.34375 L 5.625 -4.171875 Z M 19.875 -34.6875 L 12.640625 -15.484375 L 25.5 -15.484375 L 19.875 -31.859375 Z M 19.875 -34.6875 "/></g></g></g><g fill="#000000" fill-opacity="1"><g transform="translate(41.868592, 43.117012)"><g/></g></g><g fill="#000000" fill-opacity="1"><g transform="translate(55.789186, 43.117012)"><g><path d="M 8.078125 -10.859375 L 8.078125 -34.796875 L 3.234375 -36.640625 L 3.671875 -38.984375 L 18.375 -38.984375 L 18.828125 -36.640625 L 13.921875 -34.796875 L 13.921875 -9.40625 C 13.921875 -7.476562 13.722656 -5.554688 13.328125 -3.640625 C 12.941406 -1.734375 12.273438 0.0703125 11.328125 1.78125 C 10.378906 3.488281 9.0625 5.03125 7.375 6.40625 C 5.6875 7.78125 3.546875 8.894531 0.953125 9.75 L -0.28125 7.6875 C 2.28125 5.976562 4.144531 4.09375 5.3125 2.03125 C 6.488281 -0.03125 7.242188 -2.15625 7.578125 -4.34375 C 7.910156 -6.53125 8.078125 -8.703125 8.078125 -10.859375 Z M 8.078125 -10.859375 "/></g></g></g><g fill="#000000" fill-opacity="1"><g transform="translate(76.280302, 43.117012)"><g><path d="M 12.8125 0.609375 C 10.988281 0.609375 9.234375 0.210938 7.546875 -0.578125 C 5.859375 -1.378906 4.460938 -2.679688 3.359375 -4.484375 C 2.265625 -6.285156 1.71875 -8.671875 1.71875 -11.640625 C 1.71875 -15.203125 2.289062 -18.078125 3.4375 -20.265625 C 4.59375 -22.460938 6.132812 -24.070312 8.0625 -25.09375 C 10 -26.113281 12.140625 -26.625 14.484375 -26.625 C 15.335938 -26.625 16.179688 -26.566406 17.015625 -26.453125 C 17.847656 -26.335938 18.617188 -26.097656 19.328125 -25.734375 L 22.609375 -26.625 L 24.5625 -26 L 24.5625 -4.5625 C 24.5625 -3.707031 24.859375 -3.066406 25.453125 -2.640625 C 26.046875 -2.210938 26.769531 -2 27.625 -2 L 27.625 0 C 27.175781 0.21875 26.679688 0.375 26.140625 0.46875 C 25.609375 0.5625 25.082031 0.609375 24.5625 0.609375 C 23.59375 0.609375 22.632812 0.304688 21.6875 -0.296875 C 20.738281 -0.910156 20.0625 -2 19.65625 -3.5625 C 19.03125 -2.226562 18.078125 -1.195312 16.796875 -0.46875 C 15.515625 0.25 14.1875 0.609375 12.8125 0.609375 Z M 19.328125 -10.859375 L 19.328125 -23.28125 C 18.429688 -23.800781 17.65625 -24.144531 17 -24.3125 C 16.351562 -24.476562 15.601562 -24.5625 14.75 -24.5625 C 13.5625 -24.5625 12.382812 -24.179688 11.21875 -23.421875 C 10.050781 -22.660156 9.078125 -21.359375 8.296875 -19.515625 C 7.515625 -17.679688 7.125 -15.148438 7.125 -11.921875 C 7.125 -9.359375 7.429688 -7.351562 8.046875 -5.90625 C 8.660156 -4.457031 9.445312 -3.441406 10.40625 -2.859375 C 11.375 -2.285156 12.359375 -2 13.359375 -2 C 14.285156 -2 15.203125 -2.296875 16.109375 -2.890625 C 17.023438 -3.484375 17.789062 -4.429688 18.40625 -5.734375 C 19.019531 -7.035156 19.328125 -8.742188 19.328125 -10.859375 Z M 19.328125 -10.859375 "/></g></g></g><g fill="#000000" fill-opacity="1"><g transform="translate(104.67831, 43.117012)"><g><path d="M 17.375 -26.625 C 18.5625 -26.625 19.582031 -26.28125 20.4375 -25.59375 C 21.289062 -24.90625 22.023438 -24.007812 22.640625 -22.90625 C 23.253906 -21.8125 23.742188 -20.632812 24.109375 -19.375 C 24.484375 -18.113281 24.753906 -16.914062 24.921875 -15.78125 C 25.085938 -14.65625 25.171875 -13.71875 25.171875 -12.96875 C 25.171875 -10.039062 24.84375 -7.6875 24.1875 -5.90625 C 23.539062 -4.125 22.671875 -2.757812 21.578125 -1.8125 C 20.484375 -0.863281 19.226562 -0.222656 17.8125 0.109375 C 16.40625 0.441406 14.941406 0.609375 13.421875 0.609375 C 11.410156 0.609375 9.671875 0.175781 8.203125 -0.6875 C 6.742188 -1.5625 5.625 -2.722656 4.84375 -4.171875 C 4.0625 -5.617188 3.671875 -7.195312 3.671875 -8.90625 L 3.671875 -24 L 0.5625 -24 L 0.5625 -26 C 1.1875 -26.113281 2 -26.242188 3 -26.390625 C 4.007812 -26.546875 4.976562 -26.625 5.90625 -26.625 C 6.945312 -26.625 7.671875 -26.410156 8.078125 -25.984375 C 8.484375 -25.554688 8.722656 -25.117188 8.796875 -24.671875 C 8.867188 -24.222656 8.90625 -24 8.90625 -24 L 8.90625 -8.40625 C 8.90625 -5.914062 9.523438 -4.140625 10.765625 -3.078125 C 12.015625 -2.023438 13.53125 -1.5 15.3125 -1.5 C 16.238281 -1.5 17.269531 -1.832031 18.40625 -2.5 C 19.539062 -3.175781 20.515625 -4.289062 21.328125 -5.84375 C 22.140625 -7.40625 22.546875 -9.523438 22.546875 -12.203125 C 22.546875 -13.492188 22.425781 -14.851562 22.1875 -16.28125 C 21.945312 -17.71875 21.554688 -19.019531 21.015625 -20.1875 C 20.484375 -21.351562 19.769531 -22.179688 18.875 -22.671875 L 17.375 -20.4375 C 16.519531 -20.4375 15.796875 -20.734375 15.203125 -21.328125 C 14.609375 -21.921875 14.3125 -22.644531 14.3125 -23.5 C 14.3125 -24.351562 14.609375 -25.085938 15.203125 -25.703125 C 15.796875 -26.316406 16.519531 -26.625 17.375 -26.625 Z M 17.375 -26.625 "/></g></g></g><g fill="#000000" fill-opacity="1"><g transform="translate(132.074034, 43.117012)"><g><path d="M 12.8125 0.609375 C 10.988281 0.609375 9.234375 0.210938 7.546875 -0.578125 C 5.859375 -1.378906 4.460938 -2.679688 3.359375 -4.484375 C 2.265625 -6.285156 1.71875 -8.671875 1.71875 -11.640625 C 1.71875 -15.203125 2.289062 -18.078125 3.4375 -20.265625 C 4.59375 -22.460938 6.132812 -24.070312 8.0625 -25.09375 C 10 -26.113281 12.140625 -26.625 14.484375 -26.625 C 15.335938 -26.625 16.179688 -26.566406 17.015625 -26.453125 C 17.847656 -26.335938 18.617188 -26.097656 19.328125 -25.734375 L 22.609375 -26.625 L 24.5625 -26 L 24.5625 -4.5625 C 24.5625 -3.707031 24.859375 -3.066406 25.453125 -2.640625 C 26.046875 -2.210938 26.769531 -2 27.625 -2 L 27.625 0 C 27.175781 0.21875 26.679688 0.375 26.140625 0.46875 C 25.609375 0.5625 25.082031 0.609375 24.5625 0.609375 C 23.59375 0.609375 22.632812 0.304688 21.6875 -0.296875 C 20.738281 -0.910156 20.0625 -2 19.65625 -3.5625 C 19.03125 -2.226562 18.078125 -1.195312 16.796875 -0.46875 C 15.515625 0.25 14.1875 0.609375 12.8125 0.609375 Z M 19.328125 -10.859375 L 19.328125 -23.28125 C 18.429688 -23.800781 17.65625 -24.144531 17 -24.3125 C 16.351562 -24.476562 15.601562 -24.5625 14.75 -24.5625 C 13.5625 -24.5625 12.382812 -24.179688 11.21875 -23.421875 C 10.050781 -22.660156 9.078125 -21.359375 8.296875 -19.515625 C 7.515625 -17.679688 7.125 -15.148438 7.125 -11.921875 C 7.125 -9.359375 7.429688 -7.351562 8.046875 -5.90625 C 8.660156 -4.457031 9.445312 -3.441406 10.40625 -2.859375 C 11.375 -2.285156 12.359375 -2 13.359375 -2 C 14.285156 -2 15.203125 -2.296875 16.109375 -2.890625 C 17.023438 -3.484375 17.789062 -4.429688 18.40625 -5.734375 C 19.019531 -7.035156 19.328125 -8.742188 19.328125 -10.859375 Z M 19.328125 -10.859375 "/></g></g></g><g fill="#000000" fill-opacity="1"><g transform="translate(160.472043, 43.117012)"><g><path d="M 13.859375 -1.78125 C 16.609375 -1.78125 18.816406 -2.34375 20.484375 -3.46875 C 22.160156 -4.601562 23 -6.25 23 -8.40625 C 23 -9.632812 22.617188 -10.722656 21.859375 -11.671875 C 21.097656 -12.617188 20.125 -13.460938 18.9375 -14.203125 C 17.75 -14.941406 16.519531 -15.609375 15.25 -16.203125 C 13.988281 -16.796875 12.859375 -17.351562 11.859375 -17.875 C 10.816406 -18.4375 9.757812 -19.019531 8.6875 -19.625 C 7.613281 -20.238281 6.628906 -20.984375 5.734375 -21.859375 C 4.847656 -22.734375 4.132812 -23.816406 3.59375 -25.109375 C 3.050781 -26.410156 2.78125 -28.007812 2.78125 -29.90625 C 2.78125 -32.164062 3.351562 -34.035156 4.5 -35.515625 C 5.65625 -37.003906 7.195312 -38.109375 9.125 -38.828125 C 11.0625 -39.554688 13.179688 -39.921875 15.484375 -39.921875 C 16.222656 -39.921875 17.195312 -39.875 18.40625 -39.78125 C 19.613281 -39.695312 20.816406 -39.476562 22.015625 -39.125 C 23.222656 -38.769531 24.242188 -38.203125 25.078125 -37.421875 C 25.921875 -36.640625 26.34375 -35.5625 26.34375 -34.1875 C 26.34375 -32.8125 25.859375 -31.734375 24.890625 -30.953125 C 23.921875 -30.179688 22.753906 -29.796875 21.390625 -29.796875 L 19.65625 -36.53125 C 18.945312 -36.75 18.273438 -36.914062 17.640625 -37.03125 C 17.015625 -37.144531 16.273438 -37.203125 15.421875 -37.203125 C 12.929688 -37.203125 11.066406 -36.515625 9.828125 -35.140625 C 8.585938 -33.765625 7.96875 -32.148438 7.96875 -30.296875 C 7.96875 -29.296875 8.300781 -28.375 8.96875 -27.53125 C 9.632812 -26.695312 10.46875 -25.945312 11.46875 -25.28125 C 12.46875 -24.613281 13.5 -24.019531 14.5625 -23.5 C 15.625 -22.976562 16.539062 -22.515625 17.3125 -22.109375 C 19.28125 -21.140625 21.082031 -20.097656 22.71875 -18.984375 C 24.351562 -17.867188 25.660156 -16.566406 26.640625 -15.078125 C 27.628906 -13.597656 28.125 -11.785156 28.125 -9.640625 C 28.125 -7.597656 27.648438 -5.773438 26.703125 -4.171875 C 25.753906 -2.578125 24.257812 -1.320312 22.21875 -0.40625 C 20.175781 0.5 17.519531 0.953125 14.25 0.953125 C 13.507812 0.953125 12.515625 0.875 11.265625 0.71875 C 10.023438 0.570312 8.765625 0.285156 7.484375 -0.140625 C 6.203125 -0.566406 5.125 -1.195312 4.25 -2.03125 C 3.382812 -2.863281 2.953125 -3.96875 2.953125 -5.34375 C 2.953125 -6.832031 3.429688 -7.84375 4.390625 -8.375 C 5.359375 -8.914062 6.53125 -9.1875 7.90625 -9.1875 L 9.640625 -2.453125 C 10.378906 -2.222656 11.0625 -2.050781 11.6875 -1.9375 C 12.320312 -1.832031 13.046875 -1.78125 13.859375 -1.78125 Z M 13.859375 -1.78125 "/></g></g></g><g fill="#000000" fill-opacity="1"><g transform="translate(191.041649, 43.117012)"><g><path d="M 21.328125 -19.328125 L 19.609375 -23.890625 C 19.117188 -24.078125 18.625 -24.234375 18.125 -24.359375 C 17.625 -24.492188 16.984375 -24.5625 16.203125 -24.5625 C 13.421875 -24.5625 11.285156 -23.640625 9.796875 -21.796875 C 8.316406 -19.960938 7.578125 -17.394531 7.578125 -14.09375 C 7.578125 -11.863281 7.816406 -9.828125 8.296875 -7.984375 C 8.773438 -6.148438 9.644531 -4.691406 10.90625 -3.609375 C 12.175781 -2.535156 13.960938 -2 16.265625 -2 C 17.710938 -2 19.007812 -2.238281 20.15625 -2.71875 C 21.3125 -3.207031 22.460938 -3.804688 23.609375 -4.515625 L 24.890625 -2.671875 C 22.472656 -0.484375 19.484375 0.609375 15.921875 0.609375 C 10.984375 0.609375 7.378906 -0.625 5.109375 -3.09375 C 2.847656 -5.5625 1.71875 -8.851562 1.71875 -12.96875 C 1.71875 -17.28125 3.015625 -20.632812 5.609375 -23.03125 C 8.210938 -25.425781 11.6875 -26.625 16.03125 -26.625 C 17.40625 -26.625 18.710938 -26.460938 19.953125 -26.140625 C 21.203125 -25.828125 22.21875 -25.335938 23 -24.671875 C 23.78125 -24.003906 24.171875 -23.148438 24.171875 -22.109375 C 24.171875 -21.367188 23.890625 -20.71875 23.328125 -20.15625 C 22.773438 -19.601562 22.109375 -19.328125 21.328125 -19.328125 Z M 21.328125 -19.328125 "/></g></g></g><g fill="#000000" fill-opacity="1"><g transform="translate(217.15668, 43.117012)"><g><path d="M 5.34375 -24 L 2.234375 -24 L 2.234375 -26 C 2.859375 -26.113281 3.671875 -26.242188 4.671875 -26.390625 C 5.679688 -26.546875 6.648438 -26.625 7.578125 -26.625 C 8.359375 -26.625 8.953125 -26.453125 9.359375 -26.109375 C 9.765625 -25.773438 10.050781 -25.375 10.21875 -24.90625 C 10.382812 -24.445312 10.484375 -24.050781 10.515625 -23.71875 C 10.554688 -23.382812 10.578125 -23.21875 10.578125 -23.21875 L 10.578125 -20.15625 C 11.316406 -22.164062 12.457031 -23.742188 14 -24.890625 C 15.539062 -26.046875 17.035156 -26.625 18.484375 -26.625 C 19.929688 -26.625 20.953125 -26.296875 21.546875 -25.640625 C 22.140625 -24.992188 22.4375 -24.242188 22.4375 -23.390625 C 22.4375 -22.566406 22.128906 -21.867188 21.515625 -21.296875 C 20.910156 -20.722656 20.160156 -20.4375 19.265625 -20.4375 L 17.703125 -24 C 16.816406 -24 15.816406 -23.570312 14.703125 -22.71875 C 13.585938 -21.863281 12.617188 -20.582031 11.796875 -18.875 C 10.984375 -17.164062 10.578125 -14.992188 10.578125 -12.359375 L 10.578125 0 L 5.34375 0 Z M 5.34375 -24 "/></g></g></g><g fill="#000000" fill-opacity="1"><g transform="translate(240.153481, 43.117012)"><g><path d="M 8.015625 -38.8125 C 8.835938 -38.8125 9.546875 -38.523438 10.140625 -37.953125 C 10.734375 -37.378906 11.03125 -36.664062 11.03125 -35.8125 C 11.03125 -34.988281 10.734375 -34.28125 10.140625 -33.6875 C 9.546875 -33.09375 8.835938 -32.796875 8.015625 -32.796875 C 7.203125 -32.796875 6.5 -33.09375 5.90625 -33.6875 C 5.3125 -34.28125 5.015625 -34.988281 5.015625 -35.8125 C 5.015625 -36.664062 5.3125 -37.378906 5.90625 -37.953125 C 6.5 -38.523438 7.203125 -38.8125 8.015625 -38.8125 Z M 10.796875 -24 L 10.796875 0 L 5.5625 0 L 5.5625 -24 L 2.234375 -24 L 2.234375 -26 C 2.859375 -26.113281 3.707031 -26.242188 4.78125 -26.390625 C 5.863281 -26.546875 6.867188 -26.625 7.796875 -26.625 C 8.835938 -26.625 9.5625 -26.410156 9.96875 -25.984375 C 10.375 -25.554688 10.613281 -25.117188 10.6875 -24.671875 C 10.757812 -24.222656 10.796875 -24 10.796875 -24 Z M 10.796875 -24 "/></g></g></g><g clip-path="url(#8697bcd26d)"><g fill="#000000" fill-opacity="1"><g transform="translate(255.633178, 43.117012)"><g><path d="M 8.6875 -23.21875 L 8.6875 -20.15625 C 9.164062 -21.488281 9.894531 -22.640625 10.875 -23.609375 C 11.863281 -24.578125 12.929688 -25.320312 14.078125 -25.84375 C 15.234375 -26.363281 16.296875 -26.625 17.265625 -26.625 C 19.117188 -26.625 20.832031 -26.28125 22.40625 -25.59375 C 23.988281 -24.90625 25.253906 -23.710938 26.203125 -22.015625 C 27.148438 -20.328125 27.625 -17.960938 27.625 -14.921875 C 27.625 -12.171875 26.988281 -9.664062 25.71875 -7.40625 C 24.457031 -5.144531 22.722656 -3.34375 20.515625 -2 C 18.304688 -0.664062 15.773438 0 12.921875 0 L 10.46875 0 L 10.46875 -2.0625 L 12.8125 -2.0625 C 14.289062 -2.0625 15.707031 -2.632812 17.0625 -3.78125 C 18.414062 -4.9375 19.53125 -6.515625 20.40625 -8.515625 C 21.28125 -10.523438 21.71875 -12.789062 21.71875 -15.3125 C 21.71875 -17.6875 21.472656 -19.492188 20.984375 -20.734375 C 20.503906 -21.984375 19.835938 -22.835938 18.984375 -23.296875 C 18.128906 -23.765625 17.144531 -24 16.03125 -24 C 15.144531 -24 14.125 -23.570312 12.96875 -22.71875 C 11.820312 -21.863281 10.820312 -20.582031 9.96875 -18.875 C 9.113281 -17.164062 8.6875 -14.992188 8.6875 -12.359375 L 8.6875 8.75 C 8.6875 9.601562 9.019531 10.238281 9.6875 10.65625 C 10.351562 11.082031 11.113281 11.296875 11.96875 11.296875 L 11.96875 13.3125 C 11.601562 13.5 11.078125 13.644531 10.390625 13.75 C 9.703125 13.863281 8.984375 13.921875 8.234375 13.921875 C 7.566406 13.921875 6.863281 13.769531 6.125 13.46875 C 5.382812 13.175781 4.753906 12.65625 4.234375 11.90625 C 3.710938 11.164062 3.453125 10.148438 3.453125 8.859375 L 3.453125 -24 L 0.109375 -24 L 0.109375 -26 C 0.742188 -26.113281 1.597656 -26.242188 2.671875 -26.390625 C 3.742188 -26.546875 4.75 -26.625 5.6875 -26.625 C 6.457031 -26.625 7.046875 -26.453125 7.453125 -26.109375 C 7.867188 -25.773438 8.160156 -25.375 8.328125 -24.90625 C 8.492188 -24.445312 8.59375 -24.050781 8.625 -23.71875 C 8.664062 -23.382812 8.6875 -23.21875 8.6875 -23.21875 Z M 8.6875 -23.21875 "/></g></g></g></g><g fill="#000000" fill-opacity="1"><g transform="translate(285.478909, 43.117012)"><g><path d="M 9.40625 -32.46875 L 9.40625 -26 L 16.703125 -26 L 16.3125 -24 L 9.40625 -24 L 9.40625 -6.125 C 9.40625 -4.820312 9.710938 -3.804688 10.328125 -3.078125 C 10.941406 -2.359375 11.65625 -2 12.46875 -2 C 13.476562 -2 14.316406 -2.191406 14.984375 -2.578125 C 15.648438 -2.972656 16.28125 -3.488281 16.875 -4.125 L 18.15625 -2.625 C 17.226562 -1.65625 16.289062 -0.875 15.34375 -0.28125 C 14.394531 0.3125 13.125 0.609375 11.53125 0.609375 C 8.96875 0.609375 7.097656 -0.078125 5.921875 -1.453125 C 4.753906 -2.828125 4.171875 -4.535156 4.171875 -6.578125 L 4.171875 -24 L 0.953125 -24 L 0.5625 -26 L 4.515625 -27.234375 L 6.84375 -33.078125 Z M 9.40625 -32.46875 "/></g></g></g><g fill="#000000" fill-opacity="1"><g transform="translate(303.631346, 43.117012)"><g/></g></g><g fill="#000000" fill-opacity="1"><g transform="translate(317.551941, 43.117012)"><g><path d="M 31.90625 -4.796875 L 33.75 -2.34375 C 32.375 -1.332031 30.5625 -0.53125 28.3125 0.0625 C 26.070312 0.65625 23.800781 0.953125 21.5 0.953125 C 17.894531 0.953125 14.828125 0.378906 12.296875 -0.765625 C 9.773438 -1.921875 7.722656 -3.472656 6.140625 -5.421875 C 4.566406 -7.378906 3.425781 -9.570312 2.71875 -12 C 2.019531 -14.425781 1.671875 -16.921875 1.671875 -19.484375 C 1.671875 -22.046875 2.066406 -24.539062 2.859375 -26.96875 C 3.660156 -29.40625 4.867188 -31.597656 6.484375 -33.546875 C 8.097656 -35.492188 10.15625 -37.039062 12.65625 -38.1875 C 15.164062 -39.34375 18.113281 -39.921875 21.5 -39.921875 C 22.570312 -39.921875 23.796875 -39.847656 25.171875 -39.703125 C 26.546875 -39.554688 27.890625 -39.269531 29.203125 -38.84375 C 30.523438 -38.414062 31.613281 -37.785156 32.46875 -36.953125 C 33.320312 -36.117188 33.75 -35.015625 33.75 -33.640625 C 33.75 -32.265625 33.265625 -31.1875 32.296875 -30.40625 C 31.328125 -29.625 30.160156 -29.234375 28.796875 -29.234375 L 27.0625 -36.53125 C 26.132812 -36.71875 25.1875 -36.875 24.21875 -37 C 23.257812 -37.132812 22.351562 -37.203125 21.5 -37.203125 C 17.039062 -37.203125 13.710938 -35.789062 11.515625 -32.96875 C 9.328125 -30.144531 8.234375 -25.742188 8.234375 -19.765625 C 8.234375 -17.617188 8.410156 -15.515625 8.765625 -13.453125 C 9.117188 -11.390625 9.769531 -9.519531 10.71875 -7.84375 C 11.664062 -6.175781 13.007812 -4.84375 14.75 -3.84375 C 16.5 -2.84375 18.75 -2.34375 21.5 -2.34375 C 22.164062 -2.34375 23.109375 -2.40625 24.328125 -2.53125 C 25.554688 -2.664062 26.859375 -2.914062 28.234375 -3.28125 C 29.609375 -3.65625 30.832031 -4.160156 31.90625 -4.796875 Z M 31.90625 -4.796875 "/></g></g></g><g fill="#000000" fill-opacity="1"><g transform="translate(352.186359, 43.117012)"><g><path d="M 15.3125 -26.625 C 19.4375 -26.625 22.648438 -25.429688 24.953125 -23.046875 C 27.253906 -20.671875 28.40625 -17.332031 28.40625 -13.03125 C 28.40625 -8.757812 27.328125 -5.414062 25.171875 -3 C 23.015625 -0.59375 19.726562 0.609375 15.3125 0.609375 C 10.9375 0.609375 7.660156 -0.625 5.484375 -3.09375 C 3.316406 -5.5625 2.234375 -8.875 2.234375 -13.03125 C 2.234375 -17.226562 3.378906 -20.539062 5.671875 -22.96875 C 7.972656 -25.40625 11.1875 -26.625 15.3125 -26.625 Z M 15.3125 -24.5625 C 13.007812 -24.5625 11.148438 -23.546875 9.734375 -21.515625 C 8.328125 -19.492188 7.625 -16.722656 7.625 -13.203125 C 7.625 -9.710938 8.3125 -6.878906 9.6875 -4.703125 C 11.0625 -2.535156 12.9375 -1.453125 15.3125 -1.453125 C 17.6875 -1.453125 19.5625 -2.523438 20.9375 -4.671875 C 22.3125 -6.828125 23 -9.671875 23 -13.203125 C 23 -16.765625 22.300781 -19.546875 20.90625 -21.546875 C 19.519531 -23.554688 17.65625 -24.5625 15.3125 -24.5625 Z M 15.3125 -24.5625 "/></g></g></g><g fill="#000000" fill-opacity="1"><g transform="translate(382.811641, 43.117012)"><g><path d="M 26.125 -38.984375 L 26.125 -4.5625 C 26.125 -3.707031 26.421875 -3.066406 27.015625 -2.640625 C 27.609375 -2.210938 28.332031 -2 29.1875 -2 L 29.1875 0 C 28.738281 0.21875 28.242188 0.375 27.703125 0.46875 C 27.160156 0.5625 26.632812 0.609375 26.125 0.609375 C 25.15625 0.609375 24.160156 0.304688 23.140625 -0.296875 C 22.117188 -0.910156 21.40625 -2 21 -3.5625 C 20.363281 -2.226562 19.40625 -1.195312 18.125 -0.46875 C 16.84375 0.25 15.515625 0.609375 14.140625 0.609375 C 6.015625 0.609375 1.953125 -3.53125 1.953125 -11.8125 C 1.953125 -14.550781 2.382812 -17.046875 3.25 -19.296875 C 4.125 -21.546875 5.429688 -23.328125 7.171875 -24.640625 C 8.921875 -25.960938 11.0625 -26.625 13.59375 -26.625 C 15.707031 -26.625 17.515625 -26.054688 19.015625 -24.921875 C 20.515625 -23.785156 21.5625 -22.398438 22.15625 -20.765625 L 20.875 -26.625 L 20.875 -38.984375 L 17.546875 -38.984375 L 17.546875 -40.984375 C 18.171875 -41.097656 19.019531 -41.226562 20.09375 -41.375 C 21.175781 -41.519531 22.179688 -41.59375 23.109375 -41.59375 C 24.148438 -41.59375 24.875 -41.378906 25.28125 -40.953125 C 25.6875 -40.523438 25.925781 -40.085938 26 -39.640625 C 26.082031 -39.203125 26.125 -38.984375 26.125 -38.984375 Z M 14.921875 -1.5 C 15.847656 -1.5 16.765625 -1.84375 17.671875 -2.53125 C 18.585938 -3.21875 19.347656 -4.25 19.953125 -5.625 C 20.566406 -7 20.875 -8.742188 20.875 -10.859375 L 20.875 -14.25 C 20.875 -16.664062 20.503906 -18.578125 19.765625 -19.984375 C 19.023438 -21.398438 18.148438 -22.421875 17.140625 -23.046875 C 16.140625 -23.679688 15.21875 -24 14.375 -24 C 12.769531 -24 11.484375 -23.441406 10.515625 -22.328125 C 9.554688 -21.210938 8.851562 -19.71875 8.40625 -17.84375 C 7.957031 -15.96875 7.734375 -13.914062 7.734375 -11.6875 C 7.734375 -8.351562 8.347656 -5.820312 9.578125 -4.09375 C 10.804688 -2.363281 12.585938 -1.5 14.921875 -1.5 Z M 14.921875 -1.5 "/></g></g></g><g fill="#000000" fill-opacity="1"><g transform="translate(412.26761, 43.117012)"><g><path d="M 8.015625 -38.8125 C 8.835938 -38.8125 9.546875 -38.523438 10.140625 -37.953125 C 10.734375 -37.378906 11.03125 -36.664062 11.03125 -35.8125 C 11.03125 -34.988281 10.734375 -34.28125 10.140625 -33.6875 C 9.546875 -33.09375 8.835938 -32.796875 8.015625 -32.796875 C 7.203125 -32.796875 6.5 -33.09375 5.90625 -33.6875 C 5.3125 -34.28125 5.015625 -34.988281 5.015625 -35.8125 C 5.015625 -36.664062 5.3125 -37.378906 5.90625 -37.953125 C 6.5 -38.523438 7.203125 -38.8125 8.015625 -38.8125 Z M 10.796875 -24 L 10.796875 0 L 5.5625 0 L 5.5625 -24 L 2.234375 -24 L 2.234375 -26 C 2.859375 -26.113281 3.707031 -26.242188 4.78125 -26.390625 C 5.863281 -26.546875 6.867188 -26.625 7.796875 -26.625 C 8.835938 -26.625 9.5625 -26.410156 9.96875 -25.984375 C 10.375 -25.554688 10.613281 -25.117188 10.6875 -24.671875 C 10.757812 -24.222656 10.796875 -24 10.796875 -24 Z M 10.796875 -24 "/></g></g></g><g fill="#000000" fill-opacity="1"><g transform="translate(427.747332, 43.117012)"><g><path d="M 10.53125 -24 L 10.53125 -20.15625 C 11.007812 -21.457031 11.691406 -22.585938 12.578125 -23.546875 C 13.472656 -24.515625 14.457031 -25.269531 15.53125 -25.8125 C 16.613281 -26.351562 17.632812 -26.625 18.59375 -26.625 C 21.644531 -26.625 23.847656 -25.738281 25.203125 -23.96875 C 26.554688 -22.207031 27.234375 -19.785156 27.234375 -16.703125 L 27.234375 -4.5625 C 27.234375 -3.707031 27.566406 -3.066406 28.234375 -2.640625 C 28.898438 -2.210938 29.660156 -2 30.515625 -2 L 30.515625 0 C 30.140625 0.1875 29.609375 0.332031 28.921875 0.4375 C 28.242188 0.550781 27.53125 0.609375 26.78125 0.609375 C 26.113281 0.609375 25.410156 0.457031 24.671875 0.15625 C 23.929688 -0.132812 23.300781 -0.648438 22.78125 -1.390625 C 22.257812 -2.128906 22 -3.148438 22 -4.453125 L 22 -18.09375 C 22 -19.875 21.597656 -21.300781 20.796875 -22.375 C 20.003906 -23.457031 18.898438 -24 17.484375 -24 C 16.554688 -24 15.546875 -23.597656 14.453125 -22.796875 C 13.359375 -22.003906 12.429688 -20.753906 11.671875 -19.046875 C 10.910156 -17.335938 10.53125 -15.109375 10.53125 -12.359375 L 10.53125 0 L 5.296875 0 L 5.296875 -24 L 1.953125 -24 L 1.953125 -26 C 2.578125 -26.113281 3.425781 -26.242188 4.5 -26.390625 C 5.582031 -26.546875 6.585938 -26.625 7.515625 -26.625 C 8.554688 -26.625 9.28125 -26.410156 9.6875 -25.984375 C 10.09375 -25.554688 10.332031 -25.117188 10.40625 -24.671875 C 10.488281 -24.222656 10.53125 -24 10.53125 -24 Z M 10.53125 -24 "/></g></g></g><g clip-path="url(#e9aabbc9cd)"><g fill="#000000" fill-opacity="1"><g transform="translate(460.210151, 43.117012)"><g><path d="M 7.734375 -11.8125 C 7.734375 -9.425781 8.019531 -7.566406 8.59375 -6.234375 C 9.175781 -4.898438 9.941406 -3.960938 10.890625 -3.421875 C 11.835938 -2.890625 12.867188 -2.625 13.984375 -2.625 C 14.910156 -2.625 15.910156 -2.992188 16.984375 -3.734375 C 18.054688 -4.472656 18.972656 -5.660156 19.734375 -7.296875 C 20.492188 -8.929688 20.875 -11.046875 20.875 -13.640625 L 20.875 -23.5 C 20.101562 -23.757812 19.269531 -24 18.375 -24.21875 C 17.488281 -24.445312 16.5625 -24.5625 15.59375 -24.5625 C 13.25 -24.5625 11.351562 -23.484375 9.90625 -21.328125 C 8.457031 -19.171875 7.734375 -16 7.734375 -11.8125 Z M 26.125 -26 L 26.125 2.953125 C 26.125 5.734375 25.523438 7.921875 24.328125 9.515625 C 23.140625 11.117188 21.585938 12.253906 19.671875 12.921875 C 17.765625 13.585938 15.695312 13.921875 13.46875 13.921875 C 11.726562 13.921875 10.097656 13.660156 8.578125 13.140625 C 7.054688 12.617188 5.832031 11.828125 4.90625 10.765625 C 3.976562 9.710938 3.515625 8.425781 3.515625 6.90625 C 3.515625 5.9375 3.78125 5.0625 4.3125 4.28125 C 4.851562 3.507812 5.515625 2.832031 6.296875 2.25 C 7.078125 1.675781 7.851562 1.257812 8.625 1 L 9.75 2.671875 C 8.925781 3.117188 8.28125 3.703125 7.8125 4.421875 C 7.351562 5.148438 7.125 5.867188 7.125 6.578125 C 7.125 7.722656 7.671875 8.804688 8.765625 9.828125 C 9.859375 10.847656 11.425781 11.359375 13.46875 11.359375 C 14.769531 11.359375 15.988281 11.144531 17.125 10.71875 C 18.257812 10.289062 19.164062 9.507812 19.84375 8.375 C 20.53125 7.25 20.875 5.644531 20.875 3.5625 L 20.875 -0.609375 L 22 -6.953125 C 21.363281 -4.992188 20.25 -3.34375 18.65625 -2 C 17.0625 -0.664062 15.113281 0 12.8125 0 C 9.46875 0 6.820312 -0.90625 4.875 -2.71875 C 2.925781 -4.539062 1.953125 -7.476562 1.953125 -11.53125 C 1.953125 -16.164062 3.144531 -19.835938 5.53125 -22.546875 C 7.925781 -25.265625 11.242188 -26.625 15.484375 -26.625 C 16.335938 -26.625 17.273438 -26.546875 18.296875 -26.390625 C 19.316406 -26.242188 20.175781 -26.023438 20.875 -25.734375 L 24.171875 -26.625 Z M 26.125 -26 "/></g></g></g></g><g fill="#000000" fill-opacity="1"><g transform="translate(489.66612, 43.117012)"><g/></g></g><g fill="#000000" fill-opacity="1"><g transform="translate(503.586689, 43.117012)"><g><path d="M 12.75 -36.640625 L 12.75 -4.171875 L 17.59375 -2.34375 L 17.15625 0 L 2.453125 0 L 2.0625 -2.34375 L 6.84375 -4.171875 L 6.84375 -34.796875 L 1.953125 -36.640625 L 2.390625 -38.984375 L 19.65625 -38.984375 C 23.707031 -38.984375 26.757812 -37.894531 28.8125 -35.71875 C 30.875 -33.550781 31.90625 -30.648438 31.90625 -27.015625 C 31.90625 -24.117188 31.238281 -21.832031 29.90625 -20.15625 C 28.570312 -18.488281 26.816406 -17.289062 24.640625 -16.5625 C 22.472656 -15.84375 20.109375 -15.484375 17.546875 -15.484375 L 15.09375 -15.484375 L 15.09375 -17.8125 L 17.703125 -17.8125 C 19.453125 -17.8125 20.957031 -18.257812 22.21875 -19.15625 C 23.476562 -20.050781 24.453125 -21.203125 25.140625 -22.609375 C 25.828125 -24.015625 26.171875 -25.484375 26.171875 -27.015625 C 26.171875 -29.796875 25.53125 -32.09375 24.25 -33.90625 C 22.96875 -35.726562 20.820312 -36.640625 17.8125 -36.640625 Z M 12.75 -36.640625 "/></g></g></g><g fill="#000000" fill-opacity="1"><g transform="translate(537.163147, 43.117012)"><g><path d="M 5.34375 -24 L 2.234375 -24 L 2.234375 -26 C 2.859375 -26.113281 3.671875 -26.242188 4.671875 -26.390625 C 5.679688 -26.546875 6.648438 -26.625 7.578125 -26.625 C 8.359375 -26.625 8.953125 -26.453125 9.359375 -26.109375 C 9.765625 -25.773438 10.050781 -25.375 10.21875 -24.90625 C 10.382812 -24.445312 10.484375 -24.050781 10.515625 -23.71875 C 10.554688 -23.382812 10.578125 -23.21875 10.578125 -23.21875 L 10.578125 -20.15625 C 11.316406 -22.164062 12.457031 -23.742188 14 -24.890625 C 15.539062 -26.046875 17.035156 -26.625 18.484375 -26.625 C 19.929688 -26.625 20.953125 -26.296875 21.546875 -25.640625 C 22.140625 -24.992188 22.4375 -24.242188 22.4375 -23.390625 C 22.4375 -22.566406 22.128906 -21.867188 21.515625 -21.296875 C 20.910156 -20.722656 20.160156 -20.4375 19.265625 -20.4375 L 17.703125 -24 C 16.816406 -24 15.816406 -23.570312 14.703125 -22.71875 C 13.585938 -21.863281 12.617188 -20.582031 11.796875 -18.875 C 10.984375 -17.164062 10.578125 -14.992188 10.578125 -12.359375 L 10.578125 0 L 5.34375 0 Z M 5.34375 -24 "/></g></g></g><g fill="#000000" fill-opacity="1"><g transform="translate(560.159947, 43.117012)"><g><path d="M 15.3125 -26.625 C 19.4375 -26.625 22.648438 -25.429688 24.953125 -23.046875 C 27.253906 -20.671875 28.40625 -17.332031 28.40625 -13.03125 C 28.40625 -8.757812 27.328125 -5.414062 25.171875 -3 C 23.015625 -0.59375 19.726562 0.609375 15.3125 0.609375 C 10.9375 0.609375 7.660156 -0.625 5.484375 -3.09375 C 3.316406 -5.5625 2.234375 -8.875 2.234375 -13.03125 C 2.234375 -17.226562 3.378906 -20.539062 5.671875 -22.96875 C 7.972656 -25.40625 11.1875 -26.625 15.3125 -26.625 Z M 15.3125 -24.5625 C 13.007812 -24.5625 11.148438 -23.546875 9.734375 -21.515625 C 8.328125 -19.492188 7.625 -16.722656 7.625 -13.203125 C 7.625 -9.710938 8.3125 -6.878906 9.6875 -4.703125 C 11.0625 -2.535156 12.9375 -1.453125 15.3125 -1.453125 C 17.6875 -1.453125 19.5625 -2.523438 20.9375 -4.671875 C 22.3125 -6.828125 23 -9.671875 23 -13.203125 C 23 -16.765625 22.300781 -19.546875 20.90625 -21.546875 C 19.519531 -23.554688 17.65625 -24.5625 15.3125 -24.5625 Z M 15.3125 -24.5625 "/></g></g></g><g clip-path="url(#d9f6f99b06)"><g fill="#000000" fill-opacity="1"><g transform="translate(590.78523, 43.117012)"><g><path d="M 8.359375 -38.8125 C 9.171875 -38.8125 9.875 -38.523438 10.46875 -37.953125 C 11.0625 -37.378906 11.359375 -36.664062 11.359375 -35.8125 C 11.359375 -34.988281 11.0625 -34.28125 10.46875 -33.6875 C 9.875 -33.09375 9.171875 -32.796875 8.359375 -32.796875 C 7.535156 -32.796875 6.828125 -33.09375 6.234375 -33.6875 C 5.640625 -34.28125 5.34375 -34.988281 5.34375 -35.8125 C 5.34375 -36.664062 5.640625 -37.378906 6.234375 -37.953125 C 6.828125 -38.523438 7.535156 -38.8125 8.359375 -38.8125 Z M 11.140625 -24 L 11.140625 -4.5625 C 11.140625 -2.632812 10.976562 -0.742188 10.65625 1.109375 C 10.34375 2.960938 9.738281 4.695312 8.84375 6.3125 C 7.957031 7.9375 6.707031 9.394531 5.09375 10.6875 C 3.476562 11.988281 1.351562 13.066406 -1.28125 13.921875 L -2.5 11.859375 C 0.0625 10.148438 1.9375 8.367188 3.125 6.515625 C 4.3125 4.660156 5.070312 2.726562 5.40625 0.71875 C 5.738281 -1.28125 5.90625 -3.359375 5.90625 -5.515625 L 5.90625 -24 L 2.5 -24 L 2.5 -26 C 3.132812 -26.113281 4 -26.242188 5.09375 -26.390625 C 6.1875 -26.546875 7.195312 -26.625 8.125 -26.625 C 9.164062 -26.625 9.890625 -26.410156 10.296875 -25.984375 C 10.710938 -25.554688 10.957031 -25.117188 11.03125 -24.671875 C 11.101562 -24.222656 11.140625 -24 11.140625 -24 Z M 11.140625 -24 "/></g></g></g></g><g fill="#000000" fill-opacity="1"><g transform="translate(606.320579, 43.117012)"><g><path d="M 26.125 -18.765625 C 26.125 -17.054688 25.628906 -15.660156 24.640625 -14.578125 C 23.660156 -13.503906 22.320312 -12.671875 20.625 -12.078125 C 18.9375 -11.484375 17.003906 -11.066406 14.828125 -10.828125 C 12.660156 -10.585938 10.410156 -10.46875 8.078125 -10.46875 C 8.484375 -7.945312 9.398438 -5.90625 10.828125 -4.34375 C 12.253906 -2.78125 14.234375 -2 16.765625 -2 C 18.242188 -2 19.648438 -2.238281 20.984375 -2.71875 C 22.328125 -3.207031 23.570312 -3.804688 24.71875 -4.515625 L 26 -2.671875 C 24.8125 -1.597656 23.375 -0.78125 21.6875 -0.21875 C 20 0.332031 18.242188 0.609375 16.421875 0.609375 C 11.484375 0.609375 7.835938 -0.628906 5.484375 -3.109375 C 3.128906 -5.597656 1.953125 -8.90625 1.953125 -13.03125 C 1.953125 -15.882812 2.523438 -18.320312 3.671875 -20.34375 C 4.828125 -22.375 6.40625 -23.925781 8.40625 -25 C 10.414062 -26.082031 12.71875 -26.625 15.3125 -26.625 C 18.539062 -26.625 21.148438 -26.023438 23.140625 -24.828125 C 25.128906 -23.640625 26.125 -21.617188 26.125 -18.765625 Z M 7.859375 -13.46875 L 7.859375 -12.421875 C 10.304688 -12.453125 12.515625 -12.765625 14.484375 -13.359375 C 16.453125 -13.953125 18.007812 -14.769531 19.15625 -15.8125 C 20.300781 -16.851562 20.875 -18.0625 20.875 -19.4375 C 20.875 -22.851562 18.945312 -24.5625 15.09375 -24.5625 C 13.5 -24.5625 12.160156 -24.078125 11.078125 -23.109375 C 10.003906 -22.140625 9.195312 -20.820312 8.65625 -19.15625 C 8.125 -17.488281 7.859375 -15.59375 7.859375 -13.46875 Z M 7.859375 -13.46875 "/></g></g></g><g fill="#000000" fill-opacity="1"><g transform="translate(634.106091, 43.117012)"><g><path d="M 21.328125 -19.328125 L 19.609375 -23.890625 C 19.117188 -24.078125 18.625 -24.234375 18.125 -24.359375 C 17.625 -24.492188 16.984375 -24.5625 16.203125 -24.5625 C 13.421875 -24.5625 11.285156 -23.640625 9.796875 -21.796875 C 8.316406 -19.960938 7.578125 -17.394531 7.578125 -14.09375 C 7.578125 -11.863281 7.816406 -9.828125 8.296875 -7.984375 C 8.773438 -6.148438 9.644531 -4.691406 10.90625 -3.609375 C 12.175781 -2.535156 13.960938 -2 16.265625 -2 C 17.710938 -2 19.007812 -2.238281 20.15625 -2.71875 C 21.3125 -3.207031 22.460938 -3.804688 23.609375 -4.515625 L 24.890625 -2.671875 C 22.472656 -0.484375 19.484375 0.609375 15.921875 0.609375 C 10.984375 0.609375 7.378906 -0.625 5.109375 -3.09375 C 2.847656 -5.5625 1.71875 -8.851562 1.71875 -12.96875 C 1.71875 -17.28125 3.015625 -20.632812 5.609375 -23.03125 C 8.210938 -25.425781 11.6875 -26.625 16.03125 -26.625 C 17.40625 -26.625 18.710938 -26.460938 19.953125 -26.140625 C 21.203125 -25.828125 22.21875 -25.335938 23 -24.671875 C 23.78125 -24.003906 24.171875 -23.148438 24.171875 -22.109375 C 24.171875 -21.367188 23.890625 -20.71875 23.328125 -20.15625 C 22.773438 -19.601562 22.109375 -19.328125 21.328125 -19.328125 Z M 21.328125 -19.328125 "/></g></g></g><g fill="#000000" fill-opacity="1"><g transform="translate(660.221097, 43.117012)"><g><path d="M 9.40625 -32.46875 L 9.40625 -26 L 16.703125 -26 L 16.3125 -24 L 9.40625 -24 L 9.40625 -6.125 C 9.40625 -4.820312 9.710938 -3.804688 10.328125 -3.078125 C 10.941406 -2.359375 11.65625 -2 12.46875 -2 C 13.476562 -2 14.316406 -2.191406 14.984375 -2.578125 C 15.648438 -2.972656 16.28125 -3.488281 16.875 -4.125 L 18.15625 -2.625 C 17.226562 -1.65625 16.289062 -0.875 15.34375 -0.28125 C 14.394531 0.3125 13.125 0.609375 11.53125 0.609375 C 8.96875 0.609375 7.097656 -0.078125 5.921875 -1.453125 C 4.753906 -2.828125 4.171875 -4.535156 4.171875 -6.578125 L 4.171875 -24 L 0.953125 -24 L 0.5625 -26 L 4.515625 -27.234375 L 6.84375 -33.078125 Z M 9.40625 -32.46875 "/></g></g></g></g></g></svg>